<svg width="87" height="150" viewBox="0 0 87 150" fill="none" xmlns="http://www.w3.org/2000/svg">
<path d="M44.4125 0.00335631C44.5379 -0.0190193 44.6359 0.0704835 44.7064 0.271865C44.7848 0.495622 44.8239 0.786506 44.8239 1.14452L45.1189 26.8007C45.1267 27.1587 45.0914 27.4384 45.0131 27.6397C44.9426 27.8635 44.7338 27.973 44.6006 27.9953C44.4752 28.0177 44.1958 27.9623 44.1175 27.7609C44.0391 27.5595 43.9999 27.2798 43.9999 26.9218C43.9999 26.5638 44.0011 1.24521 44.0011 1.24521C43.9933 0.887196 44.0246 0.596312 44.0951 0.372555C44.1735 0.148798 44.2793 0.025732 44.4125 0.00335631Z" fill="#FFEBD0"/>
<path d="M46.6525 0.00335631C46.7778 -0.0190193 46.8758 0.0704835 46.9463 0.271865C47.0247 0.495622 47.0639 0.786506 47.0639 1.14452L47.3588 26.8007C47.3666 27.1587 47.3314 27.4384 47.253 27.6397C47.1825 27.8635 46.9737 27.973 46.8405 27.9953C46.7151 28.0177 46.4358 27.9623 46.3574 27.7609C46.279 27.5595 46.2399 27.2798 46.2399 26.9218C46.2399 26.5638 46.241 1.24521 46.241 1.24521C46.2332 0.887196 46.2645 0.596312 46.3351 0.372555C46.4134 0.148798 46.5192 0.025732 46.6525 0.00335631Z" fill="#FFEBD0"/>
<path fill-rule="evenodd" clip-rule="evenodd" d="M67.4058 59.9902C67.1942 59.7785 66.9003 59.6727 66.5241 59.6727H53.2634V56.8866L65.6424 56.5692C65.995 56.5457 66.2772 56.4281 66.4888 56.2165C66.7004 55.9814 66.8062 55.6875 66.8062 55.3348C66.8062 54.9821 66.7004 54.7 66.4888 54.4884C66.2772 54.2533 65.995 54.1474 65.6424 54.171H65.5718C65.6424 53.7242 65.7129 53.3128 65.7834 52.9366C65.854 52.5604 65.9245 52.2077 65.995 51.8786C66.1126 51.0556 65.9598 50.3973 65.5366 49.9036C65.1133 49.4098 64.4785 49.1864 63.6321 49.2335L53.0165 49.5861H52.6285C52.511 49.5626 52.3699 49.5391 52.2053 49.5156L51.1473 49.4098C50.7946 49.3628 50.489 49.4451 50.2303 49.6567C49.9952 49.8448 49.8541 50.1034 49.8071 50.4326C49.7601 50.8088 49.8189 51.1144 49.9835 51.3495C50.1715 51.5847 50.4419 51.7257 50.7946 51.7728L51.9937 51.9138C52.2288 51.9608 52.4287 51.9844 52.5933 51.9844H53.1576L63.2442 51.6669C63.1971 51.9961 63.1383 52.3723 63.0678 52.7955C63.0208 53.1952 62.9385 53.689 62.8209 54.2768L50.1245 54.6294C49.7718 54.653 49.4779 54.7705 49.2428 54.9821C49.0312 55.1937 48.9254 55.4759 48.9254 55.8285C48.9254 56.2047 49.0312 56.4986 49.2428 56.7102C49.4779 56.9219 49.7718 57.0159 50.1245 56.9924H50.3714V59.3906C50.3714 60.2135 50.6183 60.8718 51.112 61.3656C51.6293 61.8829 52.2994 62.1415 53.1223 62.1415H66.5241C66.9003 62.1415 67.1942 62.0239 67.4058 61.7888C67.6409 61.5772 67.7584 61.2951 67.7584 60.9424C67.7584 60.5427 67.6409 60.2253 67.4058 59.9902ZM44.5169 44.7192C43.7646 44.7662 43.3884 45.1659 43.3884 45.9183C43.4119 46.2945 43.5294 46.5884 43.741 46.8C43.9762 47.0116 44.2701 47.1056 44.6227 47.0821L71.5674 46.5531C72.3432 46.5061 72.7312 46.0946 72.7312 45.3187C72.7077 44.9425 72.5784 44.6486 72.3432 44.437C72.1316 44.2254 71.8377 44.1314 71.4616 44.1549L44.5169 44.7192ZM66.7004 39.3937C66.4653 39.1821 66.1479 39.0763 65.7482 39.0763L52.8401 39.3585V32.446C52.8401 31.9993 52.6991 31.6466 52.4169 31.3879C52.1583 31.1293 51.8056 31 51.3589 31H51.3236C50.8769 31 50.5125 31.1411 50.2303 31.4232C49.9717 31.7054 49.8424 32.0698 49.8424 32.5165V39.8522C49.8424 40.487 50.0305 41.0043 50.4067 41.404C50.8064 41.7802 51.3236 41.9565 51.9585 41.933L65.854 41.6156C66.6769 41.5686 67.0883 41.1336 67.0883 40.3107C67.0648 39.911 66.9355 39.6054 66.7004 39.3937ZM17.6809 37.3835C17.3047 38.3004 17.1166 39.2644 17.1166 40.2754C17.1166 41.31 17.3047 42.2975 17.6809 43.2379C18.0806 44.1549 18.6449 44.9661 19.3737 45.6714C20.1026 46.3768 20.9961 46.9411 22.0541 47.3643C23.1121 47.7875 24.2995 47.9991 25.6161 47.9991C26.9328 47.9991 28.1202 47.7875 29.1782 47.3643C30.2362 46.9411 31.1297 46.3768 31.8585 45.6714C32.5874 44.9661 33.1399 44.1549 33.5161 43.2379C33.9158 42.2975 34.1157 41.31 34.1157 40.2754C34.1157 39.2644 33.9158 38.3004 33.5161 37.3835C33.1399 36.443 32.5874 35.6201 31.8585 34.9147C31.1297 34.1859 30.2362 33.6098 29.1782 33.1866C28.1202 32.7634 26.9328 32.5518 25.6161 32.5518C24.2995 32.5518 23.1121 32.7634 22.0541 33.1866C20.9961 33.6098 20.1026 34.1859 19.3737 34.9147C18.6449 35.6201 18.0806 36.443 17.6809 37.3835ZM20.3965 42.2857C20.1614 41.6509 20.0438 40.9808 20.0438 40.2754C20.0438 39.5701 20.1614 38.9 20.3965 38.2652C20.6551 37.6304 21.0196 37.0778 21.4898 36.6076C21.96 36.1138 22.5361 35.7259 23.2179 35.4437C23.9233 35.1616 24.7227 35.0205 25.6161 35.0205C26.5096 35.0205 27.2972 35.1616 27.9791 35.4437C28.6844 35.7259 29.2722 36.1138 29.7425 36.6076C30.2127 37.0778 30.5654 37.6304 30.8005 38.2652C31.0591 38.9 31.1885 39.5701 31.1885 40.2754C31.1885 40.9808 31.0591 41.6509 30.8005 42.2857C30.5654 42.9205 30.2127 43.4848 29.7425 43.9786C29.2722 44.4488 28.6844 44.825 27.9791 45.1071C27.2972 45.3893 26.5096 45.5303 25.6161 45.5303C24.7227 45.5303 23.9233 45.3893 23.2179 45.1071C22.5361 44.825 21.96 44.4488 21.4898 43.9786C21.0196 43.4848 20.6551 42.9205 20.3965 42.2857ZM24.417 49.0924C24.1584 49.351 24.0291 49.7037 24.0291 50.1504V54.8763L12.1086 55.1232C11.3092 55.1702 10.9095 55.5934 10.9095 56.3928C10.933 56.769 11.0623 57.0747 11.2974 57.3098C11.5325 57.5214 11.8382 57.6155 12.2144 57.5919L39.1237 57.0629C39.9231 57.0159 40.3228 56.5927 40.3228 55.7933C40.2993 55.3936 40.17 55.0879 39.9349 54.8763C39.6998 54.6412 39.3941 54.5354 39.0179 54.5589L26.9563 54.8058V50.1504C26.9563 49.7037 26.827 49.351 26.5684 49.0924C26.3097 48.8338 25.9571 48.7044 25.5103 48.7044C25.0401 48.7044 24.6757 48.8338 24.417 49.0924ZM27.2385 68.9482C27.6382 68.9247 27.9556 69.0422 28.1907 69.3009C28.4493 69.536 28.5669 69.8534 28.5434 70.2531C28.4728 71.029 28.4023 71.7461 28.3318 72.4044C28.2847 73.0392 28.226 73.6388 28.1554 74.2031C28.1084 74.7439 28.0496 75.2729 27.9791 75.7901C27.9086 76.2839 27.8263 76.7894 27.7322 77.3067H28.1202C28.4963 77.2831 28.802 77.3889 29.0371 77.6241C29.2722 77.8357 29.4016 78.1296 29.4251 78.5058C29.4251 79.3052 29.0254 79.7284 28.226 79.7754L17.7514 80.0223C17.6103 80.6806 17.1519 81.0333 16.376 81.0803C15.9763 81.0803 15.6353 80.9627 15.3532 80.7276C15.0946 80.469 14.9653 80.1398 14.9653 79.7401L14.6126 69.5125C14.6126 69.0893 14.7537 68.7366 15.0358 68.4544C15.3179 68.1723 15.6706 68.0312 16.0938 68.0312C16.4935 68.0312 16.8109 68.1488 17.0461 68.3839C17.3047 68.619 17.434 68.9364 17.434 69.3361L27.2385 68.9482ZM27.3443 90.5321C26.9681 90.5556 26.6624 90.4616 26.4273 90.2499C26.1922 90.0383 26.0629 89.7444 26.0394 89.3682C25.9923 88.9921 26.0746 88.6864 26.2862 88.4513C26.4978 88.2162 26.7917 88.0868 27.1679 88.0633L34.1157 87.7107V68.525C34.1157 67.9372 33.9158 67.4317 33.5161 67.0084C32.9283 66.3266 32.9636 65.6565 33.6219 64.9982C33.9041 64.716 34.2215 64.5867 34.5742 64.6102C34.9504 64.6337 35.2678 64.7866 35.5264 65.0687L36.1965 65.8093C36.5257 66.1855 36.749 66.597 36.8666 67.0437C36.9841 67.4904 37.0429 67.9842 37.0429 68.525V95.9281C37.0429 96.3278 36.9136 96.6569 36.655 96.9156C36.3963 97.1742 36.0672 97.3035 35.6675 97.3035H35.4911C35.0914 97.3035 34.7623 97.1742 34.5036 96.9156C34.245 96.6569 34.1157 96.3278 34.1157 95.9281V90.1794L27.3443 90.5321ZM23.4648 94.4115C23.4648 94.8112 23.3355 95.1404 23.0769 95.399C22.8182 95.6577 22.4891 95.787 22.0894 95.787H21.913C21.5133 95.787 21.1842 95.6577 20.9255 95.399C20.6669 95.1404 20.5376 94.8112 20.5376 94.4115V86.3705C19.1033 86.5351 17.6809 86.6761 16.2702 86.7937C14.883 86.8877 13.5428 86.97 12.2496 87.0406C11.8734 87.0641 11.5678 86.97 11.3327 86.7584C11.0976 86.5233 10.9565 86.2177 10.9095 85.8415C10.8624 85.4653 10.9447 85.1596 11.1563 84.9245C11.3679 84.6894 11.6618 84.5601 12.038 84.5366C15.1416 84.372 18.3392 84.1016 21.6309 83.7254C24.9225 83.3257 28.0966 82.7967 31.1532 82.1383C31.5294 82.0443 31.8468 82.0913 32.1054 82.2794C32.3641 82.444 32.5286 82.7026 32.5992 83.0553C32.6462 83.4315 32.5757 83.7607 32.3876 84.0428C32.223 84.3014 31.9643 84.4778 31.6117 84.5718C30.342 84.854 29.0136 85.1126 27.6264 85.3477C26.2627 85.5828 24.8755 85.7944 23.4648 85.9825V94.4115ZM25.0519 77.3772C25.2164 76.2486 25.334 75.2494 25.4045 74.3794C25.4986 73.486 25.5574 72.522 25.5809 71.4875L17.5045 71.8049L17.7161 77.5535L25.0519 77.3772ZM62.962 94.9406C63.2206 94.7054 63.35 94.3763 63.35 93.9531V81.1156L67.4058 80.9392V95.8928C67.4058 96.316 67.5351 96.6569 67.7937 96.9156C68.0523 97.1742 68.3932 97.3035 68.8165 97.3035C69.2397 97.3035 69.5806 97.1742 69.8392 96.9156C70.0979 96.6569 70.2272 96.316 70.2272 95.8928V68.525C70.2272 67.9842 70.1566 67.4904 70.0156 67.0437C69.898 66.597 69.6747 66.1855 69.3455 65.8093L68.7107 65.104C68.452 64.7983 68.1346 64.6455 67.7584 64.6455C67.4058 64.6455 67.0883 64.7866 66.8062 65.0687C66.5241 65.3509 66.383 65.6683 66.383 66.021C66.383 66.3501 66.5241 66.6793 66.8062 67.0084C67.2059 67.4317 67.4058 67.9372 67.4058 68.525V78.4705L63.35 78.6468V70.9584C63.35 70.4177 63.2912 69.9239 63.1736 69.4772C63.0561 69.007 62.8327 68.5955 62.5035 68.2428L61.8687 67.5375C61.2574 66.8556 60.6343 66.8321 59.9995 67.4669C59.6939 67.7726 59.541 68.1017 59.541 68.4544C59.541 68.7836 59.6939 69.101 59.9995 69.4067L60.0348 69.4419C60.411 69.8181 60.5991 70.3236 60.5991 70.9584V93.9531C60.5991 94.3763 60.7166 94.7054 60.9517 94.9406C61.2104 95.1992 61.5513 95.3285 61.9745 95.3285C62.3977 95.3285 62.7269 95.1992 62.962 94.9406ZM46.8799 81.3977C46.6213 82.056 46.4919 82.7379 46.4919 83.4433C46.4919 84.1486 46.6213 84.8305 46.8799 85.4888C47.1385 86.1471 47.5029 86.7349 47.9732 87.2522C48.4434 87.7459 49.0195 88.1456 49.7013 88.4513C50.4067 88.7334 51.1943 88.8745 52.0643 88.8745C52.9342 88.8745 53.7101 88.7334 54.3919 88.4513C55.0973 88.1456 55.6851 87.7459 56.1553 87.2522C56.6491 86.7349 57.0135 86.1471 57.2486 85.4888C57.5073 84.8305 57.6366 84.1486 57.6366 83.4433C57.6366 82.7144 57.5073 82.0208 57.2486 81.3624C56.99 80.7041 56.6256 80.1281 56.1553 79.6343C55.6851 79.1406 55.0973 78.7526 54.3919 78.4705C53.7101 78.1648 52.9342 78.012 52.0643 78.012C51.1943 78.012 50.4067 78.1648 49.7013 78.4705C49.0195 78.7526 48.4434 79.1523 47.9732 79.6696C47.5029 80.1633 47.1385 80.7394 46.8799 81.3977ZM43.7058 75.7901C43.8468 76.0488 44.082 76.2369 44.4111 76.3544L45.5397 76.7071C45.7983 76.7776 46.0452 76.8247 46.2803 76.8482C46.539 76.8482 46.7976 76.8364 47.0562 76.8129L58.0598 76.2839C58.4595 76.2604 58.7534 76.1428 58.9415 75.9312C59.1296 75.6961 59.2119 75.4022 59.1884 75.0495C59.1648 74.6733 59.0473 74.3794 58.8357 74.1678C58.6241 73.9327 58.3302 73.8269 57.954 73.8504L47.021 74.3794C46.8329 74.4029 46.68 74.4029 46.5625 74.3794C46.4449 74.3559 46.3038 74.3206 46.1393 74.2736L45.1165 73.9915C44.7638 73.8739 44.4464 73.9092 44.1643 74.0973C43.9056 74.2854 43.741 74.544 43.6705 74.8732C43.5765 75.2023 43.5882 75.508 43.7058 75.7901ZM54.1451 85.6651C53.6513 86.2059 52.9577 86.4763 52.0643 86.4763C51.1708 86.4763 50.4772 86.2059 49.9835 85.6651C49.4897 85.1244 49.2428 84.3837 49.2428 83.4433C49.2428 82.5028 49.4897 81.7622 49.9835 81.2214C50.4772 80.6806 51.1708 80.4102 52.0643 80.4102C52.9577 80.4102 53.6513 80.6806 54.1451 81.2214C54.6623 81.7622 54.9209 82.5028 54.9209 83.4433C54.9209 84.3837 54.6623 85.1244 54.1451 85.6651ZM47.5147 70.3942C47.3266 71.1701 47.597 71.6873 48.3259 71.9459L48.8549 72.1223C49.043 72.1928 49.2546 72.2281 49.4897 72.2281H50.1598H50.4067L55.062 72.087C55.8849 72.04 56.2729 71.6168 56.2259 70.8174C56.2023 70.4412 56.0848 70.1473 55.8732 69.9357C55.6616 69.7006 55.3559 69.5948 54.9562 69.6183L50.3361 69.7593C50.054 69.7593 49.7718 69.7241 49.4897 69.6535L48.996 69.5125C48.6198 69.3949 48.2906 69.4302 48.0085 69.6183C47.7498 69.8064 47.5852 70.065 47.5147 70.3942ZM27.0974 114.585C27.4736 114.585 27.7792 114.691 28.0144 114.902C28.2495 115.114 28.3788 115.408 28.4023 115.784C28.4023 116.16 28.2965 116.466 28.0849 116.701C27.8733 116.936 27.5794 117.053 27.2032 117.053L16.7286 117.3C16.6111 118.029 16.1644 118.417 15.3885 118.464C14.9653 118.464 14.6243 118.347 14.3657 118.112C14.1071 117.853 13.966 117.512 13.9425 117.089L13.4487 104.886C13.4252 104.463 13.5428 104.11 13.8014 103.828C14.0836 103.522 14.448 103.37 14.8947 103.37C15.2944 103.37 15.6118 103.487 15.847 103.722C16.0821 103.957 16.2231 104.275 16.2702 104.674L26.1099 104.287C26.5566 104.263 26.8975 104.381 27.1327 104.639C27.3913 104.874 27.4971 105.215 27.4501 105.662C27.3795 106.602 27.309 107.472 27.2385 108.272C27.1679 109.071 27.0856 109.835 26.9916 110.564C26.8975 111.27 26.8035 111.963 26.7094 112.645C26.6154 113.303 26.5096 113.962 26.392 114.62L27.0974 114.585ZM29.2487 112.116C28.8725 112.116 28.5669 112.01 28.3318 111.799C28.1202 111.587 28.0144 111.293 28.0144 110.917C28.0144 110.541 28.1202 110.235 28.3318 110C28.5669 109.765 28.8725 109.647 29.2487 109.647L34.0804 109.577V103.793C34.0804 103.181 33.9041 102.699 33.5514 102.347C33.2222 102.018 33.0694 101.677 33.0929 101.324C33.1164 100.971 33.2928 100.642 33.6219 100.337C33.9746 100.031 34.3273 99.8898 34.68 99.9133C35.0326 99.9133 35.3618 100.101 35.6675 100.478L36.1612 101.077C36.4904 101.453 36.7138 101.865 36.8313 102.312C36.9489 102.758 37.0076 103.252 37.0076 103.793V118.429C37.0076 118.876 36.8783 119.228 36.6197 119.487C36.3611 119.746 35.9966 119.875 35.5264 119.875C35.0797 119.875 34.727 119.746 34.4684 119.487C34.2097 119.228 34.0804 118.876 34.0804 118.429V112.045L29.2487 112.116ZM21.2429 124.283C20.8903 124.307 20.5964 124.225 20.3612 124.037C20.1496 123.825 20.0321 123.531 20.0086 123.155C19.985 122.779 20.0791 122.485 20.2907 122.273C20.5023 122.038 20.7962 121.909 21.1724 121.885L34.9974 121.462C35.6087 121.438 36.1024 121.615 36.4786 121.991C36.8548 122.367 37.0429 122.861 37.0429 123.472V131.513C37.0429 131.937 36.9136 132.277 36.655 132.536C36.3963 132.818 36.0319 132.959 35.5617 132.959C35.1385 132.959 34.7858 132.818 34.5036 132.536C34.245 132.277 34.1157 131.937 34.1157 131.513V123.931L21.2429 124.283ZM23.7469 114.691C23.935 113.233 24.0996 111.846 24.2407 110.529C24.4053 109.212 24.4993 107.978 24.5228 106.826L16.376 107.143L16.6581 114.832L23.7469 114.691ZM61.2692 121.462C61.2456 121.109 61.0811 120.804 60.7754 120.545L54.7446 115.255C55.7086 114.15 56.555 113.103 57.2839 112.116C58.0363 111.105 58.6476 110.153 59.1178 109.259C59.5175 108.554 59.541 107.954 59.1884 107.461C58.8592 106.943 58.2479 106.708 57.3544 106.755L49.5955 107.108C49.1958 107.108 48.8431 107.073 48.5375 107.002L47.8321 106.826C47.4794 106.732 47.162 106.767 46.8799 106.932C46.6213 107.073 46.4449 107.32 46.3509 107.672C46.2333 108.048 46.2451 108.378 46.3861 108.66C46.5507 108.942 46.8093 109.13 47.162 109.224L48.079 109.471C48.3611 109.541 48.6315 109.588 48.8901 109.612C49.1488 109.612 49.3957 109.6 49.6308 109.577L55.8379 109.295C55.4382 109.906 54.8857 110.658 54.1803 111.552C53.475 112.445 52.6521 113.421 51.7116 114.479C50.7946 115.513 49.7601 116.571 48.608 117.653C47.4794 118.735 46.3038 119.746 45.0812 120.686C44.7521 120.945 44.564 121.239 44.5169 121.568C44.4699 121.897 44.5757 122.226 44.8343 122.555C45.093 122.884 45.4104 123.073 45.7866 123.12C46.1628 123.167 46.5154 123.061 46.8446 122.802C47.9497 121.909 49.0077 121.003 50.0187 120.087C51.0297 119.146 51.9937 118.206 52.9107 117.265L59.0473 122.661C59.3529 122.92 59.6703 123.037 59.9995 123.014C60.3522 122.99 60.6578 122.814 60.9165 122.485C61.1751 122.156 61.2927 121.815 61.2692 121.462ZM66.383 102.982C66.477 103.193 66.5241 103.464 66.5241 103.793V131.125C66.5241 131.572 66.6534 131.925 66.912 132.183C67.1706 132.442 67.5233 132.571 67.97 132.571C68.4403 132.571 68.8047 132.442 69.0633 132.183C69.322 131.925 69.4513 131.572 69.4513 131.125V103.793C69.4513 103.252 69.3925 102.758 69.2749 102.312C69.1574 101.865 68.934 101.453 68.6049 101.077L68.0053 100.407C67.7467 100.125 67.441 99.9604 67.0883 99.9133C66.7357 99.8663 66.3712 100.007 65.995 100.337C65.3837 100.924 65.3837 101.583 65.995 102.312C66.1831 102.523 66.3125 102.747 66.383 102.982ZM58.8067 149.212C72.8236 142.593 84.0169 127.775 86.8369 111.097H86.8442C87.3734 107.973 86.4962 104.779 84.4373 102.344C82.3531 99.8823 79.3083 98.465 76.0859 98.465H10.9093C7.68691 98.465 4.64212 99.8751 2.55789 102.344C0.499034 104.779 -0.378155 107.973 0.151058 111.097C2.97111 127.775 14.1643 142.593 28.1812 149.212H58.8067Z" fill="#FFEBD0"/>
<path fill-rule="evenodd" clip-rule="evenodd" d="M37.0452 8.81466C35.8889 8.50819 35 6.66172 35 4.42966C35 1.98323 36.0679 0 37.3852 0C37.4113 0 37.4373 0.000779175 37.4632 0.00232571C37.4964 -0.00264485 37.5277 0.000351985 37.557 0.0113162C38.7941 0.174852 39.7704 2.09052 39.7704 4.42966C39.7704 6.511 38.9975 8.25707 37.9556 8.73187L38.1633 26.8007C38.1711 27.1587 38.1359 27.4384 38.0575 27.6397C37.987 27.8635 37.7782 27.973 37.645 27.9953C37.5196 28.0177 37.2403 27.9623 37.1619 27.7609C37.0835 27.5595 37.0444 27.2798 37.0444 26.9218L37.0452 8.81466Z" fill="#FFEBD0"/>
</svg>
