<svg width="87" height="119" viewBox="0 0 87 119" fill="none" xmlns="http://www.w3.org/2000/svg">
<path fill-rule="evenodd" clip-rule="evenodd" d="M67.4056 28.9902C67.194 28.7785 66.9001 28.6727 66.5239 28.6727H53.2632V25.8866L65.6422 25.5692C65.9949 25.5457 66.277 25.4281 66.4886 25.2165C66.7002 24.9814 66.806 24.6875 66.806 24.3348C66.806 23.9821 66.7002 23.7 66.4886 23.4884C66.277 23.2533 65.9949 23.1474 65.6422 23.171H65.5717C65.6422 22.7242 65.7127 22.3128 65.7833 21.9366C65.8538 21.5604 65.9243 21.2077 65.9949 20.8786C66.1124 20.0556 65.9596 19.3973 65.5364 18.9036C65.1132 18.4098 64.4783 18.1864 63.6319 18.2335L53.0163 18.5861H52.6284C52.5108 18.5626 52.3697 18.5391 52.2051 18.5156L51.1471 18.4098C50.7944 18.3628 50.4888 18.4451 50.2301 18.6567C49.995 18.8448 49.854 19.1034 49.8069 19.4326C49.7599 19.8088 49.8187 20.1144 49.9833 20.3495C50.1714 20.5847 50.4418 20.7257 50.7944 20.7728L51.9935 20.9138C52.2287 20.9608 52.4285 20.9844 52.5931 20.9844H53.1574L63.244 20.6669C63.197 20.9961 63.1382 21.3723 63.0676 21.7955C63.0206 22.1952 62.9383 22.689 62.8208 23.2768L50.1243 23.6294C49.7717 23.653 49.4778 23.7705 49.2426 23.9821C49.031 24.1937 48.9252 24.4759 48.9252 24.8285C48.9252 25.2047 49.031 25.4986 49.2426 25.7102C49.4778 25.9219 49.7717 26.0159 50.1243 25.9924H50.3712V28.3906C50.3712 29.2135 50.6181 29.8718 51.1118 30.3656C51.6291 30.8829 52.2992 31.1415 53.1221 31.1415H66.5239C66.9001 31.1415 67.194 31.0239 67.4056 30.7888C67.6407 30.5772 67.7583 30.2951 67.7583 29.9424C67.7583 29.5427 67.6407 29.2253 67.4056 28.9902ZM44.5168 13.7192C43.7644 13.7662 43.3882 14.1659 43.3882 14.9183C43.4117 15.2945 43.5293 15.5884 43.7409 15.8C43.976 16.0116 44.2699 16.1056 44.6226 16.0821L71.5672 15.5531C72.3431 15.5061 72.731 15.0946 72.731 14.3187C72.7075 13.9425 72.5782 13.6486 72.3431 13.437C72.1315 13.2254 71.8376 13.1314 71.4614 13.1549L44.5168 13.7192ZM66.7002 8.39374C66.4651 8.18214 66.1477 8.07633 65.748 8.07633L52.84 8.35848V1.44598C52.84 0.999255 52.6989 0.646578 52.4168 0.387947C52.1581 0.129316 51.8054 0 51.3587 0H51.3235C50.8767 0 50.5123 0.141072 50.2301 0.423215C49.9715 0.705356 49.8422 1.06979 49.8422 1.51652V8.85223C49.8422 9.48705 50.0303 10.0043 50.4065 10.404C50.8062 10.7802 51.3235 10.9565 51.9583 10.933L65.8538 10.6156C66.6767 10.5686 67.0882 10.1336 67.0882 9.31071C67.0647 8.91101 66.9353 8.60535 66.7002 8.39374ZM17.6807 6.38348C17.3045 7.30044 17.1164 8.26443 17.1164 9.27544C17.1164 10.31 17.3045 11.2975 17.6807 12.2379C18.0804 13.1549 18.6447 13.9661 19.3736 14.6714C20.1024 15.3768 20.9959 15.9411 22.0539 16.3643C23.112 16.7875 24.2993 16.9991 25.616 16.9991C26.9326 16.9991 28.12 16.7875 29.178 16.3643C30.2361 15.9411 31.1295 15.3768 31.8584 14.6714C32.5872 13.9661 33.1398 13.1549 33.516 12.2379C33.9157 11.2975 34.1155 10.31 34.1155 9.27544C34.1155 8.26443 33.9157 7.30044 33.516 6.38348C33.1398 5.443 32.5872 4.62009 31.8584 3.91473C31.1295 3.18586 30.2361 2.60982 29.178 2.18661C28.12 1.76339 26.9326 1.55179 25.616 1.55179C24.2993 1.55179 23.112 1.76339 22.0539 2.18661C20.9959 2.60982 20.1024 3.18586 19.3736 3.91473C18.6447 4.62009 18.0804 5.443 17.6807 6.38348ZM20.3963 11.2857C20.1612 10.6509 20.0437 9.98079 20.0437 9.27544C20.0437 8.57008 20.1612 7.89999 20.3963 7.26517C20.655 6.63035 21.0194 6.07782 21.4896 5.60759C21.9599 5.11384 22.5359 4.72589 23.2178 4.44375C23.9231 4.1616 24.7225 4.02053 25.616 4.02053C26.5094 4.02053 27.2971 4.1616 27.9789 4.44375C28.6843 4.72589 29.2721 5.11384 29.7423 5.60759C30.2125 6.07782 30.5652 6.63035 30.8003 7.26517C31.059 7.89999 31.1883 8.57008 31.1883 9.27544C31.1883 9.98079 31.059 10.6509 30.8003 11.2857C30.5652 11.9205 30.2125 12.4848 29.7423 12.9786C29.2721 13.4488 28.6843 13.825 27.9789 14.1071C27.2971 14.3893 26.5094 14.5303 25.616 14.5303C24.7225 14.5303 23.9231 14.3893 23.2178 14.1071C22.5359 13.825 21.9599 13.4488 21.4896 12.9786C21.0194 12.4848 20.655 11.9205 20.3963 11.2857ZM24.4169 18.0924C24.1582 18.351 24.0289 18.7037 24.0289 19.1504V23.8763L12.1084 24.1232C11.309 24.1702 10.9093 24.5934 10.9093 25.3928C10.9328 25.769 11.0621 26.0747 11.2972 26.3098C11.5323 26.5214 11.838 26.6155 12.2142 26.5919L39.1235 26.0629C39.9229 26.0159 40.3226 25.5927 40.3226 24.7933C40.2991 24.3936 40.1698 24.0879 39.9347 23.8763C39.6996 23.6412 39.3939 23.5354 39.0177 23.5589L26.9561 23.8058V19.1504C26.9561 18.7037 26.8268 18.351 26.5682 18.0924C26.3096 17.8338 25.9569 17.7044 25.5102 17.7044C25.0399 17.7044 24.6755 17.8338 24.4169 18.0924ZM27.2383 37.9482C27.638 37.9247 27.9554 38.0422 28.1905 38.3009C28.4492 38.536 28.5667 38.8534 28.5432 39.2531C28.4727 40.029 28.4021 40.7461 28.3316 41.4044C28.2846 42.0392 28.2258 42.6388 28.1553 43.2031C28.1082 43.7439 28.0494 44.2729 27.9789 44.7901C27.9084 45.2839 27.8261 45.7894 27.732 46.3067H28.12C28.4962 46.2831 28.8018 46.3889 29.0369 46.6241C29.2721 46.8357 29.4014 47.1296 29.4249 47.5058C29.4249 48.3052 29.0252 48.7284 28.2258 48.7754L17.7512 49.0223C17.6102 49.6806 17.1517 50.0333 16.3758 50.0803C15.9761 50.0803 15.6352 49.9627 15.353 49.7276C15.0944 49.469 14.9651 49.1398 14.9651 48.7401L14.6124 38.5125C14.6124 38.0893 14.7535 37.7366 15.0356 37.4544C15.3178 37.1723 15.6704 37.0312 16.0937 37.0312C16.4934 37.0312 16.8108 37.1488 17.0459 37.3839C17.3045 37.619 17.4338 37.9364 17.4338 38.3361L27.2383 37.9482ZM27.3441 59.5321C26.9679 59.5556 26.6622 59.4616 26.4271 59.2499C26.192 59.0383 26.0627 58.7444 26.0392 58.3682C25.9922 57.9921 26.0744 57.6864 26.2861 57.4513C26.4977 57.2162 26.7916 57.0868 27.1678 57.0633L34.1155 56.7107V37.525C34.1155 36.9372 33.9157 36.4317 33.516 36.0084C32.9282 35.3266 32.9634 34.6565 33.6218 33.9982C33.9039 33.716 34.2213 33.5867 34.574 33.6102C34.9502 33.6337 35.2676 33.7866 35.5262 34.0687L36.1963 34.8093C36.5255 35.1855 36.7488 35.597 36.8664 36.0437C36.984 36.4904 37.0427 36.9842 37.0427 37.525V64.9281C37.0427 65.3278 36.9134 65.6569 36.6548 65.9156C36.3962 66.1742 36.067 66.3035 35.6673 66.3035H35.491C35.0913 66.3035 34.7621 66.1742 34.5035 65.9156C34.2448 65.6569 34.1155 65.3278 34.1155 64.9281V59.1794L27.3441 59.5321ZM23.4646 63.4115C23.4646 63.8112 23.3353 64.1404 23.0767 64.399C22.8181 64.6577 22.4889 64.787 22.0892 64.787H21.9128C21.5131 64.787 21.184 64.6577 20.9253 64.399C20.6667 64.1404 20.5374 63.8112 20.5374 63.4115V55.3705C19.1032 55.5351 17.6807 55.6761 16.27 55.7937C14.8828 55.8877 13.5426 55.97 12.2495 56.0406C11.8733 56.0641 11.5676 55.97 11.3325 55.7584C11.0974 55.5233 10.9563 55.2177 10.9093 54.8415C10.8623 54.4653 10.9446 54.1596 11.1562 53.9245C11.3678 53.6894 11.6617 53.5601 12.0379 53.5366C15.1414 53.372 18.339 53.1016 21.6307 52.7254C24.9224 52.3257 28.0965 51.7967 31.153 51.1383C31.5292 51.0443 31.8466 51.0913 32.1052 51.2794C32.3639 51.444 32.5285 51.7026 32.599 52.0553C32.646 52.4315 32.5755 52.7607 32.3874 53.0428C32.2228 53.3014 31.9642 53.4778 31.6115 53.5718C30.3419 53.854 29.0134 54.1126 27.6262 54.3477C26.2625 54.5828 24.8753 54.7944 23.4646 54.9825V63.4115ZM25.0517 46.3772C25.2163 45.2486 25.3338 44.2494 25.4044 43.3794C25.4984 42.486 25.5572 41.522 25.5807 40.4875L17.5044 40.8049L17.716 46.5535L25.0517 46.3772ZM62.9618 63.9406C63.2205 63.7054 63.3498 63.3763 63.3498 62.9531V50.1156L67.4056 49.9392V64.8928C67.4056 65.316 67.5349 65.6569 67.7935 65.9156C68.0522 66.1742 68.3931 66.3035 68.8163 66.3035C69.2395 66.3035 69.5804 66.1742 69.8391 65.9156C70.0977 65.6569 70.227 65.316 70.227 64.8928V37.525C70.227 36.9842 70.1565 36.4904 70.0154 36.0437C69.8978 35.597 69.6745 35.1855 69.3453 34.8093L68.7105 34.104C68.4519 33.7983 68.1344 33.6455 67.7583 33.6455C67.4056 33.6455 67.0882 33.7866 66.806 34.0687C66.5239 34.3509 66.3828 34.6683 66.3828 35.021C66.3828 35.3501 66.5239 35.6793 66.806 36.0084C67.2057 36.4317 67.4056 36.9372 67.4056 37.525V47.4705L63.3498 47.6468V39.9584C63.3498 39.4177 63.291 38.9239 63.1734 38.4772C63.0559 38.007 62.8325 37.5955 62.5034 37.2428L61.8685 36.5375C61.2572 35.8556 60.6342 35.8321 59.9993 36.4669C59.6937 36.7726 59.5409 37.1017 59.5409 37.4544C59.5409 37.7836 59.6937 38.101 59.9993 38.4067L60.0346 38.4419C60.4108 38.8181 60.5989 39.3236 60.5989 39.9584V62.9531C60.5989 63.3763 60.7164 63.7054 60.9516 63.9406C61.2102 64.1992 61.5511 64.3285 61.9743 64.3285C62.3975 64.3285 62.7267 64.1992 62.9618 63.9406ZM46.8797 50.3977C46.6211 51.056 46.4918 51.7379 46.4918 52.4433C46.4918 53.1486 46.6211 53.8305 46.8797 54.4888C47.1383 55.1471 47.5028 55.7349 47.973 56.2522C48.4432 56.7459 49.0193 57.1456 49.7011 57.4513C50.4065 57.7334 51.1941 57.8745 52.0641 57.8745C52.934 57.8745 53.7099 57.7334 54.3918 57.4513C55.0971 57.1456 55.6849 56.7459 56.1551 56.2522C56.6489 55.7349 57.0133 55.1471 57.2484 54.4888C57.5071 53.8305 57.6364 53.1486 57.6364 52.4433C57.6364 51.7144 57.5071 51.0208 57.2484 50.3624C56.9898 49.7041 56.6254 49.1281 56.1551 48.6343C55.6849 48.1406 55.0971 47.7526 54.3918 47.4705C53.7099 47.1648 52.934 47.012 52.0641 47.012C51.1941 47.012 50.4065 47.1648 49.7011 47.4705C49.0193 47.7526 48.4432 48.1523 47.973 48.6696C47.5028 49.1633 47.1383 49.7394 46.8797 50.3977ZM43.7056 44.7901C43.8467 45.0488 44.0818 45.2369 44.411 45.3544L45.5395 45.7071C45.7982 45.7776 46.045 45.8247 46.2802 45.8482C46.5388 45.8482 46.7974 45.8364 47.056 45.8129L58.0596 45.2839C58.4593 45.2604 58.7532 45.1428 58.9413 44.9312C59.1294 44.6961 59.2117 44.4022 59.1882 44.0495C59.1647 43.6733 59.0471 43.3794 58.8355 43.1678C58.6239 42.9327 58.33 42.8269 57.9538 42.8504L47.0208 43.3794C46.8327 43.4029 46.6799 43.4029 46.5623 43.3794C46.4447 43.3559 46.3037 43.3206 46.1391 43.2736L45.1163 42.9915C44.7636 42.8739 44.4462 42.9092 44.1641 43.0973C43.9055 43.2854 43.7409 43.544 43.6703 43.8732C43.5763 44.2023 43.588 44.508 43.7056 44.7901ZM54.1449 54.6651C53.6511 55.2059 52.9575 55.4763 52.0641 55.4763C51.1706 55.4763 50.477 55.2059 49.9833 54.6651C49.4895 54.1244 49.2426 53.3837 49.2426 52.4433C49.2426 51.5028 49.4895 50.7622 49.9833 50.2214C50.477 49.6806 51.1706 49.4102 52.0641 49.4102C52.9575 49.4102 53.6511 49.6806 54.1449 50.2214C54.6621 50.7622 54.9208 51.5028 54.9208 52.4433C54.9208 53.3837 54.6621 54.1244 54.1449 54.6651ZM47.5145 39.3942C47.3264 40.1701 47.5968 40.6873 48.3257 40.9459L48.8547 41.1223C49.0428 41.1928 49.2544 41.2281 49.4895 41.2281H50.1596H50.4065L55.0618 41.087C55.8848 41.04 56.2727 40.6168 56.2257 39.8174C56.2022 39.4412 56.0846 39.1473 55.873 38.9357C55.6614 38.7006 55.3557 38.5948 54.956 38.6183L50.336 38.7593C50.0538 38.7593 49.7717 38.7241 49.4895 38.6535L48.9958 38.5125C48.6196 38.3949 48.2904 38.4302 48.0083 38.6183C47.7496 38.8064 47.5851 39.065 47.5145 39.3942ZM27.0972 83.5847C27.4734 83.5847 27.7791 83.6905 28.0142 83.9022C28.2493 84.1138 28.3786 84.4077 28.4021 84.7839C28.4021 85.16 28.2963 85.4657 28.0847 85.7008C27.8731 85.9359 27.5792 86.0535 27.203 86.0535L16.7285 86.3004C16.6109 87.0292 16.1642 87.4172 15.3883 87.4642C14.9651 87.4642 14.6242 87.3466 14.3655 87.1115C14.1069 86.8529 13.9658 86.512 13.9423 86.0888L13.4486 73.8861C13.4251 73.4629 13.5426 73.1102 13.8012 72.8281C14.0834 72.5224 14.4478 72.3696 14.8945 72.3696C15.2943 72.3696 15.6117 72.4871 15.8468 72.7223C16.0819 72.9574 16.223 73.2748 16.27 73.6745L26.1097 73.2865C26.5564 73.263 26.8974 73.3806 27.1325 73.6392C27.3911 73.8743 27.4969 74.2153 27.4499 74.662C27.3794 75.6025 27.3088 76.4724 27.2383 77.2718C27.1678 78.0712 27.0855 78.8353 26.9914 79.5642C26.8974 80.2696 26.8033 80.9632 26.7093 81.645C26.6152 82.3033 26.5094 82.9617 26.3919 83.62L27.0972 83.5847ZM29.2486 81.116C28.8724 81.116 28.5667 81.0102 28.3316 80.7986C28.12 80.587 28.0142 80.2931 28.0142 79.9169C28.0142 79.5407 28.12 79.235 28.3316 78.9999C28.5667 78.7648 28.8724 78.6472 29.2486 78.6472L34.0802 78.5767V72.7928C34.0802 72.1815 33.9039 71.6995 33.5512 71.3468C33.2221 71.0176 33.0692 70.6767 33.0927 70.324C33.1163 69.9714 33.2926 69.6422 33.6218 69.3365C33.9744 69.0309 34.3271 68.8898 34.6798 68.9133C35.0325 68.9133 35.3616 69.1014 35.6673 69.4776L36.161 70.0772C36.4902 70.4534 36.7136 70.8648 36.8311 71.3115C36.9487 71.7583 37.0075 72.252 37.0075 72.7928V87.4289C37.0075 87.8757 36.8782 88.2283 36.6195 88.487C36.3609 88.7456 35.9965 88.8749 35.5262 88.8749C35.0795 88.8749 34.7268 88.7456 34.4682 88.487C34.2096 88.2283 34.0802 87.8757 34.0802 87.4289V81.0455L29.2486 81.116ZM21.2428 93.2834C20.8901 93.3069 20.5962 93.2246 20.3611 93.0365C20.1495 92.8249 20.0319 92.531 20.0084 92.1548C19.9849 91.7786 20.0789 91.4847 20.2905 91.2731C20.5021 91.038 20.796 90.9087 21.1722 90.8852L34.9972 90.462C35.6085 90.4385 36.1023 90.6148 36.4785 90.991C36.8546 91.3672 37.0427 91.8609 37.0427 92.4722V100.513C37.0427 100.937 36.9134 101.277 36.6548 101.536C36.3962 101.818 36.0317 101.959 35.5615 101.959C35.1383 101.959 34.7856 101.818 34.5035 101.536C34.2448 101.277 34.1155 100.937 34.1155 100.513V92.9307L21.2428 93.2834ZM23.7468 83.6905C23.9349 82.2328 24.0995 80.8456 24.2405 79.5289C24.4051 78.2123 24.4992 76.9779 24.5227 75.8258L16.3758 76.1432L16.6579 83.8316L23.7468 83.6905ZM61.269 90.462C61.2455 90.1093 61.0809 89.8036 60.7752 89.545L54.7444 84.2548C55.7084 83.1498 56.5548 82.1035 57.2837 81.116C58.0361 80.105 58.6474 79.1527 59.1176 78.2593C59.5173 77.5539 59.5409 76.9544 59.1882 76.4606C58.859 75.9434 58.2477 75.7083 57.3543 75.7553L49.5953 76.108C49.1956 76.108 48.8429 76.0727 48.5373 76.0022L47.8319 75.8258C47.4793 75.7318 47.1618 75.767 46.8797 75.9316C46.6211 76.0727 46.4447 76.3196 46.3507 76.6722C46.2331 77.0484 46.2449 77.3776 46.386 77.6597C46.5505 77.9419 46.8092 78.13 47.1618 78.224L48.0788 78.4709C48.361 78.5414 48.6313 78.5885 48.89 78.612C49.1486 78.612 49.3955 78.6002 49.6306 78.5767L55.8377 78.2946C55.438 78.9059 54.8855 79.6583 54.1801 80.5517C53.4748 81.4452 52.6519 82.4209 51.7114 83.4789C50.7944 84.5135 49.7599 85.5715 48.6078 86.653C47.4793 87.7346 46.3037 88.7456 45.081 89.6861C44.7519 89.9447 44.5638 90.2386 44.5168 90.5678C44.4697 90.8969 44.5755 91.2261 44.8342 91.5553C45.0928 91.8844 45.4102 92.0725 45.7864 92.1196C46.1626 92.1666 46.5153 92.0608 46.8444 91.8021C47.9495 90.9087 49.0075 90.0035 50.0185 89.0865C51.0296 88.146 51.9935 87.2056 52.9105 86.2651L59.0471 91.6611C59.3528 91.9197 59.6702 92.0373 59.9993 92.0138C60.352 91.9902 60.6577 91.8139 60.9163 91.4847C61.1749 91.1556 61.2925 90.8147 61.269 90.462ZM66.3828 71.9816C66.4769 72.1932 66.5239 72.4636 66.5239 72.7928V100.125C66.5239 100.572 66.6532 100.925 66.9118 101.183C67.1705 101.442 67.5231 101.571 67.9699 101.571C68.4401 101.571 68.8045 101.442 69.0632 101.183C69.3218 100.925 69.4511 100.572 69.4511 100.125V72.7928C69.4511 72.252 69.3923 71.7583 69.2748 71.3115C69.1572 70.8648 68.9339 70.4534 68.6047 70.0772L68.0051 69.4071C67.7465 69.1249 67.4408 68.9604 67.0882 68.9133C66.7355 68.8663 66.3711 69.0074 65.9949 69.3365C65.3836 69.9243 65.3836 70.5827 65.9949 71.3115C66.183 71.5231 66.3123 71.7465 66.3828 71.9816ZM58.8066 118.212C72.8235 111.593 84.0167 96.7747 86.8367 80.0973H86.844C87.3732 76.9727 86.496 73.7793 84.4372 71.3435C82.3529 68.8823 79.3081 67.465 76.0857 67.465H10.9091C7.68674 67.465 4.64195 68.8751 2.55772 71.3435C0.49886 73.7793 -0.378329 76.9727 0.150884 80.0973C2.97094 96.7747 14.1642 111.593 28.1811 118.212H58.8066Z" fill="#0C0D0C"/>
</svg>
