<svg width="130" height="130" viewBox="0 0 130 130" fill="none" xmlns="http://www.w3.org/2000/svg">
<g id="Group 56">
<circle id="Ellipse 15" cx="65" cy="65" r="65" fill="#FFFBFB"/>
<g id="logo">
<g id="Group 32">
<path id="&#227;&#133;&#161;" d="M65.6943 8.00255C65.7894 7.98557 65.8637 8.05347 65.9172 8.20625C65.9767 8.37601 66.0064 8.59669 66.0064 8.86831L66.2301 28.3327C66.2361 28.6043 66.2093 28.8165 66.1499 28.9693C66.0964 29.1391 65.938 29.2221 65.837 29.2391C65.7418 29.2561 65.5299 29.214 65.4704 29.0612C65.411 28.9085 65.3813 28.6963 65.3813 28.4247C65.3813 28.1531 65.3821 8.9447 65.3821 8.9447C65.3762 8.67309 65.4 8.4524 65.4535 8.28264C65.5129 8.11289 65.5932 8.01952 65.6943 8.00255Z" fill="#8A6C6C"/>
<path id="&#227;&#133;&#161;_2" d="M67.3935 8.00255C67.4886 7.98557 67.5629 8.05347 67.6164 8.20625C67.6759 8.37601 67.7056 8.59669 67.7056 8.86831L67.9294 28.3327C67.9353 28.6043 67.9086 28.8165 67.8491 28.9693C67.7956 29.1391 67.6372 29.2221 67.5362 29.2391C67.441 29.2561 67.2291 29.214 67.1696 29.0612C67.1102 28.9085 67.0805 28.6963 67.0805 28.4247C67.0805 28.1531 67.0814 8.9447 67.0814 8.9447C67.0754 8.67309 67.0992 8.4524 67.1527 8.28264C67.2122 8.11289 67.2924 8.01952 67.3935 8.00255Z" fill="#8A6C6C"/>
</g>
<g id="Group 29">
<path id="Exclude" fill-rule="evenodd" clip-rule="evenodd" d="M83.1381 53.5125C82.9776 53.3519 82.7546 53.2716 82.4692 53.2716H72.4088V51.1579L81.8003 50.9171C82.0679 50.8992 82.2819 50.81 82.4425 50.6495C82.603 50.4711 82.6833 50.2482 82.6833 49.9806C82.6833 49.713 82.603 49.499 82.4425 49.3384C82.2819 49.1601 82.0679 49.0798 81.8003 49.0976H81.7468C81.8003 48.7587 81.8538 48.4466 81.9073 48.1612C81.9608 47.8758 82.0144 47.6082 82.0679 47.3585C82.1571 46.7341 82.0411 46.2347 81.72 45.8601C81.399 45.4855 80.9173 45.3161 80.2752 45.3517L72.2215 45.6193H71.9272C71.838 45.6015 71.7309 45.5836 71.6061 45.5658L70.8034 45.4855C70.5358 45.4498 70.3039 45.5123 70.1077 45.6728C69.9293 45.8155 69.8223 46.0117 69.7866 46.2614C69.751 46.5468 69.7956 46.7787 69.9204 46.9571C70.0631 47.1355 70.2683 47.2425 70.5358 47.2782L71.4455 47.3852C71.6239 47.4209 71.7755 47.4387 71.9004 47.4387H72.3285L79.9809 47.1979C79.9452 47.4477 79.9006 47.7331 79.8471 48.0541C79.8114 48.3574 79.749 48.732 79.6598 49.1779L70.0275 49.4455C69.7599 49.4633 69.5369 49.5525 69.3585 49.713C69.198 49.8736 69.1177 50.0876 69.1177 50.3552C69.1177 50.6406 69.198 50.8636 69.3585 51.0241C69.5369 51.1846 69.7599 51.256 70.0275 51.2382H70.2147V53.0576C70.2147 53.6819 70.402 54.1814 70.7766 54.556C71.1691 54.9484 71.6774 55.1446 72.3018 55.1446H82.4692C82.7546 55.1446 82.9776 55.0554 83.1381 54.877C83.3165 54.7165 83.4057 54.5024 83.4057 54.2349C83.4057 53.9316 83.3165 53.6908 83.1381 53.5125ZM65.7732 41.9269C65.2024 41.9626 64.917 42.2658 64.917 42.8366C64.9348 43.122 65.024 43.345 65.1845 43.5055C65.3629 43.6661 65.5859 43.7374 65.8534 43.7196L86.2954 43.3182C86.884 43.2826 87.1784 42.9704 87.1784 42.3818C87.1605 42.0964 87.0624 41.8734 86.884 41.7128C86.7235 41.5523 86.5005 41.481 86.2151 41.4988L65.7732 41.9269ZM82.603 37.8867C82.4246 37.7261 82.1838 37.6459 81.8806 37.6459L72.0877 37.8599V32.6156C72.0877 32.2767 71.9807 32.0092 71.7666 31.8129C71.5704 31.6167 71.3028 31.5186 70.9639 31.5186H70.9372C70.5983 31.5186 70.3218 31.6257 70.1077 31.8397C69.9115 32.0538 69.8134 32.3302 69.8134 32.6692V38.2345C69.8134 38.7161 69.9561 39.1085 70.2415 39.4118C70.5447 39.6972 70.9372 39.831 71.4188 39.8131L81.9608 39.5723C82.5852 39.5367 82.8973 39.2067 82.8973 38.5823C82.8795 38.2791 82.7814 38.0472 82.603 37.8867ZM45.4136 36.3615C45.1282 37.0572 44.9855 37.7886 44.9855 38.5556C44.9855 39.3404 45.1282 40.0896 45.4136 40.8031C45.7168 41.4988 46.1449 42.1142 46.6979 42.6493C47.2509 43.1845 47.9287 43.6126 48.7314 43.9336C49.5341 44.2547 50.4349 44.4152 51.4338 44.4152C52.4327 44.4152 53.3335 44.2547 54.1362 43.9336C54.9389 43.6126 55.6167 43.1845 56.1697 42.6493C56.7227 42.1142 57.1418 41.4988 57.4272 40.8031C57.7305 40.0896 57.8821 39.3404 57.8821 38.5556C57.8821 37.7886 57.7305 37.0572 57.4272 36.3615C57.1418 35.648 56.7227 35.0237 56.1697 34.4886C55.6167 33.9356 54.9389 33.4986 54.1362 33.1775C53.3335 32.8565 52.4327 32.6959 51.4338 32.6959C50.4349 32.6959 49.5341 32.8565 48.7314 33.1775C47.9287 33.4986 47.2509 33.9356 46.6979 34.4886C46.1449 35.0237 45.7168 35.648 45.4136 36.3615ZM47.4738 40.0807C47.2955 39.5991 47.2063 39.0907 47.2063 38.5556C47.2063 38.0205 47.2955 37.5121 47.4738 37.0305C47.67 36.5488 47.9465 36.1297 48.3033 35.7729C48.66 35.3983 49.0971 35.104 49.6143 34.8899C50.1495 34.6759 50.756 34.5689 51.4338 34.5689C52.1116 34.5689 52.7092 34.6759 53.2265 34.8899C53.7616 35.104 54.2075 35.3983 54.5643 35.7729C54.921 36.1297 55.1886 36.5488 55.367 37.0305C55.5632 37.5121 55.6613 38.0205 55.6613 38.5556C55.6613 39.0907 55.5632 39.5991 55.367 40.0807C55.1886 40.5623 54.921 40.9904 54.5643 41.365C54.2075 41.7218 53.7616 42.0072 53.2265 42.2212C52.7092 42.4353 52.1116 42.5423 51.4338 42.5423C50.756 42.5423 50.1495 42.4353 49.6143 42.2212C49.0971 42.0072 48.66 41.7218 48.3033 41.365C47.9465 40.9904 47.67 40.5623 47.4738 40.0807ZM50.5241 45.2447C50.3279 45.4409 50.2297 45.7085 50.2297 46.0474V49.6328L41.1861 49.8201C40.5796 49.8557 40.2763 50.1768 40.2763 50.7833C40.2942 51.0687 40.3923 51.3006 40.5707 51.479C40.749 51.6395 40.9809 51.7109 41.2663 51.693L61.6815 51.2917C62.288 51.256 62.5912 50.9349 62.5912 50.3284C62.5734 50.0252 62.4753 49.7933 62.2969 49.6328C62.1185 49.4544 61.8867 49.3741 61.6012 49.392L52.4505 49.5793V46.0474C52.4505 45.7085 52.3524 45.4409 52.1562 45.2447C51.96 45.0485 51.6924 44.9504 51.3535 44.9504C50.9968 44.9504 50.7203 45.0485 50.5241 45.2447ZM52.6646 60.3086C52.9678 60.2908 53.2086 60.3799 53.387 60.5762C53.5832 60.7545 53.6724 60.9953 53.6546 61.2986C53.6011 61.8872 53.5475 62.4313 53.494 62.9307C53.4584 63.4124 53.4138 63.8672 53.3603 64.2953C53.3246 64.7056 53.28 65.1069 53.2265 65.4994C53.173 65.8739 53.1105 66.2575 53.0392 66.6499H53.3335C53.6189 66.632 53.8508 66.7123 54.0292 66.8907C54.2075 67.0512 54.3057 67.2742 54.3235 67.5596C54.3235 68.1661 54.0202 68.4872 53.4138 68.5228L45.4671 68.7101C45.3601 69.2096 45.0122 69.4772 44.4236 69.5128C44.1204 69.5128 43.8617 69.4236 43.6477 69.2453C43.4514 69.049 43.3533 68.7993 43.3533 68.4961L43.0858 60.7367C43.0858 60.4156 43.1928 60.1481 43.4068 59.934C43.6209 59.72 43.8885 59.6129 44.2095 59.6129C44.5128 59.6129 44.7536 59.7021 44.932 59.8805C45.1282 60.0589 45.2263 60.2997 45.2263 60.6029L52.6646 60.3086ZM52.7449 76.6836C52.4595 76.7014 52.2276 76.6301 52.0492 76.4695C51.8708 76.309 51.7727 76.086 51.7549 75.8006C51.7192 75.5152 51.7816 75.2833 51.9422 75.1049C52.1027 74.9266 52.3257 74.8284 52.6111 74.8106L57.8821 74.543V59.9875C57.8821 59.5416 57.7305 59.1581 57.4272 58.837C56.9813 58.3197 57.0081 57.8113 57.5075 57.3119C57.7216 57.0978 57.9624 56.9997 58.2299 57.0176C58.5153 57.0354 58.7561 57.1513 58.9524 57.3654L59.4607 57.9273C59.7105 58.2127 59.8799 58.5248 59.9691 58.8637C60.0583 59.2027 60.1029 59.5773 60.1029 59.9875V80.7773C60.1029 81.0805 60.0048 81.3303 59.8086 81.5265C59.6124 81.7227 59.3626 81.8208 59.0594 81.8208H58.9256C58.6224 81.8208 58.3726 81.7227 58.1764 81.5265C57.9802 81.3303 57.8821 81.0805 57.8821 80.7773V76.416L52.7449 76.6836ZM49.8016 79.6268C49.8016 79.93 49.7035 80.1797 49.5073 80.376C49.3111 80.5722 49.0614 80.6703 48.7581 80.6703H48.6244C48.3211 80.6703 48.0714 80.5722 47.8752 80.376C47.679 80.1797 47.5809 79.93 47.5809 79.6268V73.5263C46.4928 73.6512 45.4136 73.7582 44.3433 73.8474C43.2909 73.9187 42.2742 73.9812 41.2931 74.0347C41.0077 74.0525 40.7758 73.9812 40.5974 73.8206C40.419 73.6422 40.312 73.4104 40.2763 73.125C40.2407 72.8396 40.3031 72.6077 40.4636 72.4293C40.6242 72.2509 40.8471 72.1528 41.1325 72.135C43.4871 72.0101 45.913 71.805 48.4103 71.5196C50.9076 71.2163 53.3157 70.815 55.6346 70.3155C55.92 70.2442 56.1608 70.2798 56.357 70.4225C56.5532 70.5474 56.6781 70.7436 56.7316 71.0112C56.7672 71.2966 56.7137 71.5463 56.571 71.7604C56.4462 71.9566 56.25 72.0904 55.9824 72.1617C55.0192 72.3758 54.0113 72.572 52.9589 72.7504C51.9243 72.9287 50.8719 73.0893 49.8016 73.232V79.6268ZM51.0057 66.7034C51.1305 65.8472 51.2197 65.0891 51.2732 64.4291C51.3446 63.7513 51.3892 63.0199 51.407 62.2351L45.2798 62.4759L45.4403 66.8372L51.0057 66.7034ZM79.7668 80.0281C79.963 79.8498 80.0611 79.6 80.0611 79.2789V69.5396L83.1381 69.4058V80.7505C83.1381 81.0716 83.2362 81.3303 83.4324 81.5265C83.6287 81.7227 83.8873 81.8208 84.2084 81.8208C84.5295 81.8208 84.7881 81.7227 84.9843 81.5265C85.1805 81.3303 85.2786 81.0716 85.2786 80.7505V59.9875C85.2786 59.5773 85.2251 59.2027 85.1181 58.8637C85.0289 58.5248 84.8595 58.2127 84.6097 57.9273L84.1281 57.3921C83.9319 57.1603 83.6911 57.0443 83.4057 57.0443C83.1381 57.0443 82.8973 57.1513 82.6833 57.3654C82.4692 57.5794 82.3622 57.8202 82.3622 58.0878C82.3622 58.3375 82.4692 58.5873 82.6833 58.837C82.9865 59.1581 83.1381 59.5416 83.1381 59.9875V67.5328L80.0611 67.6666V61.8337C80.0611 61.4235 80.0165 61.0489 79.9273 60.7099C79.8382 60.3532 79.6687 60.041 79.419 59.7735L78.9374 59.2383C78.4736 58.721 78.0009 58.7032 77.5193 59.1848C77.2874 59.4167 77.1714 59.6664 77.1714 59.934C77.1714 60.1837 77.2874 60.4245 77.5193 60.6564L77.546 60.6832C77.8314 60.9686 77.9741 61.3521 77.9741 61.8337V79.2789C77.9741 79.6 78.0633 79.8498 78.2417 80.0281C78.4379 80.2243 78.6966 80.3224 79.0176 80.3224C79.3387 80.3224 79.5884 80.2243 79.7668 80.0281ZM67.5659 69.7536C67.3696 70.2531 67.2715 70.7704 67.2715 71.3055C67.2715 71.8406 67.3696 72.3579 67.5659 72.8574C67.7621 73.3568 68.0386 73.8028 68.3953 74.1952C68.7521 74.5698 69.1891 74.873 69.7064 75.1049C70.2415 75.319 70.8391 75.426 71.4991 75.426C72.159 75.426 72.7477 75.319 73.265 75.1049C73.8001 74.873 74.2461 74.5698 74.6028 74.1952C74.9774 73.8028 75.2539 73.3568 75.4323 72.8574C75.6285 72.3579 75.7266 71.8406 75.7266 71.3055C75.7266 70.7525 75.6285 70.2263 75.4323 69.7269C75.236 69.2274 74.9596 68.7904 74.6028 68.4158C74.2461 68.0412 73.8001 67.7469 73.265 67.5328C72.7477 67.301 72.159 67.185 71.4991 67.185C70.8391 67.185 70.2415 67.301 69.7064 67.5328C69.1891 67.7469 68.7521 68.0501 68.3953 68.4426C68.0386 68.8172 67.7621 69.2542 67.5659 69.7536ZM65.1578 65.4994C65.2648 65.6956 65.4432 65.8383 65.6929 65.9275L66.5491 66.195C66.7453 66.2485 66.9326 66.2842 67.111 66.302C67.3072 66.302 67.5034 66.2931 67.6996 66.2753L76.0477 65.8739C76.3509 65.8561 76.5739 65.7669 76.7166 65.6064C76.8593 65.428 76.9217 65.205 76.9039 64.9375C76.886 64.6521 76.7968 64.4291 76.6363 64.2686C76.4758 64.0902 76.2528 64.0099 75.9674 64.0277L67.6729 64.4291C67.5302 64.4469 67.4142 64.4469 67.325 64.4291C67.2359 64.4113 67.1288 64.3845 67.004 64.3488L66.228 64.1348C65.9605 64.0456 65.7197 64.0723 65.5056 64.215C65.3094 64.3577 65.1845 64.554 65.131 64.8037C65.0597 65.0534 65.0686 65.2853 65.1578 65.4994ZM73.0777 72.9912C72.7031 73.4014 72.1769 73.6066 71.4991 73.6066C70.8212 73.6066 70.295 73.4014 69.9204 72.9912C69.5458 72.5809 69.3585 72.019 69.3585 71.3055C69.3585 70.592 69.5458 70.0301 69.9204 69.6199C70.295 69.2096 70.8212 69.0045 71.4991 69.0045C72.1769 69.0045 72.7031 69.2096 73.0777 69.6199C73.4701 70.0301 73.6663 70.592 73.6663 71.3055C73.6663 72.019 73.4701 72.5809 73.0777 72.9912ZM68.0475 61.4056C67.9048 61.9943 68.1099 62.3867 68.6629 62.5829L69.0642 62.7167C69.2069 62.7702 69.3675 62.797 69.5458 62.797H70.0542H70.2415L73.7734 62.6899C74.3977 62.6543 74.692 62.3332 74.6563 61.7267C74.6385 61.4413 74.5493 61.2183 74.3888 61.0578C74.2282 60.8794 73.9963 60.7991 73.6931 60.817L70.188 60.924C69.9739 60.924 69.7599 60.8972 69.5458 60.8437L69.1712 60.7367C68.8858 60.6475 68.6361 60.6743 68.4221 60.817C68.2258 60.9597 68.101 61.1559 68.0475 61.4056ZM52.5576 94.9315C52.843 94.9315 53.0749 95.0118 53.2532 95.1723C53.4316 95.3328 53.5297 95.5558 53.5476 95.8412C53.5476 96.1266 53.4673 96.3585 53.3067 96.5369C53.1462 96.7152 52.9232 96.8044 52.6378 96.8044L44.6912 96.9917C44.602 97.5447 44.2631 97.839 43.6744 97.8747C43.3533 97.8747 43.0947 97.7855 42.8985 97.6071C42.7023 97.4109 42.5952 97.1523 42.5774 96.8312L42.2028 87.5735C42.185 87.2524 42.2742 86.9848 42.4704 86.7708C42.6844 86.5389 42.9609 86.4229 43.2998 86.4229C43.6031 86.4229 43.8439 86.5121 44.0222 86.6905C44.2006 86.8689 44.3076 87.1097 44.3433 87.4129L51.8084 87.1186C52.1473 87.1007 52.4059 87.1899 52.5843 87.3862C52.7805 87.5645 52.8608 87.8232 52.8251 88.1621C52.7716 88.8756 52.7181 89.5356 52.6646 90.1421C52.6111 90.7486 52.5486 91.3283 52.4773 91.8812C52.4059 92.4164 52.3346 92.9426 52.2632 93.4599C52.1919 93.9593 52.1116 94.4588 52.0224 94.9582L52.5576 94.9315ZM54.1897 93.0585C53.9043 93.0585 53.6724 92.9783 53.494 92.8177C53.3335 92.6572 53.2532 92.4342 53.2532 92.1488C53.2532 91.8634 53.3335 91.6315 53.494 91.4531C53.6724 91.2748 53.9043 91.1856 54.1897 91.1856L57.8553 91.1321V86.744C57.8553 86.2802 57.7216 85.9145 57.454 85.647C57.2043 85.3973 57.0883 85.1386 57.1062 84.871C57.124 84.6035 57.2578 84.3538 57.5075 84.1219C57.7751 83.89 58.0426 83.7829 58.3102 83.8008C58.5778 83.8008 58.8275 83.9435 59.0594 84.2289L59.434 84.6838C59.6837 84.9692 59.8532 85.2813 59.9423 85.6202C60.0315 85.9591 60.0761 86.3337 60.0761 86.744V97.8479C60.0761 98.1868 59.978 98.4544 59.7818 98.6506C59.5856 98.8468 59.3091 98.945 58.9524 98.945C58.6134 98.945 58.3459 98.8468 58.1497 98.6506C57.9534 98.4544 57.8553 98.1868 57.8553 97.8479V93.005L54.1897 93.0585ZM48.116 102.29C47.8484 102.307 47.6255 102.245 47.4471 102.102C47.2865 101.942 47.1973 101.719 47.1795 101.433C47.1617 101.148 47.233 100.925 47.3936 100.764C47.5541 100.586 47.7771 100.488 48.0625 100.47L58.551 100.149C59.0148 100.131 59.3894 100.265 59.6748 100.55C59.9602 100.836 60.1029 101.21 60.1029 101.674V107.775C60.1029 108.096 60.0048 108.354 59.8086 108.551C59.6124 108.765 59.3359 108.872 58.9791 108.872C58.658 108.872 58.3905 108.765 58.1764 108.551C57.9802 108.354 57.8821 108.096 57.8821 107.775V102.022L48.116 102.29ZM50.0157 95.0118C50.1584 93.9058 50.2833 92.8534 50.3903 91.8545C50.5152 90.8556 50.5865 89.9191 50.6043 89.0451L44.4236 89.2859L44.6376 95.1188L50.0157 95.0118ZM78.4825 100.149C78.4647 99.8814 78.3398 99.6495 78.1079 99.4533L73.5326 95.4399C74.2639 94.6015 74.906 93.8077 75.459 93.0585C76.0298 92.2915 76.4936 91.5691 76.8504 90.8913C77.1536 90.3561 77.1714 89.9013 76.9039 89.5267C76.6541 89.1342 76.1904 88.9559 75.5125 88.9915L69.6261 89.2591C69.3229 89.2591 69.0553 89.2324 68.8234 89.1788L68.2883 89.0451C68.0207 88.9737 67.7799 89.0005 67.5659 89.1253C67.3696 89.2323 67.2359 89.4196 67.1645 89.6872C67.0753 89.9726 67.0842 90.2223 67.1913 90.4364C67.3161 90.6504 67.5123 90.7931 67.7799 90.8645L68.4756 91.0518C68.6896 91.1053 68.8948 91.141 69.091 91.1588C69.2872 91.1588 69.4745 91.1499 69.6529 91.1321L74.362 90.918C74.0588 91.3818 73.6396 91.9526 73.1044 92.6304C72.5693 93.3083 71.945 94.0485 71.2315 94.8512C70.5358 95.6361 69.751 96.4388 68.8769 97.2593C68.0207 98.0798 67.1288 98.8468 66.2013 99.5603C65.9515 99.7566 65.8088 99.9795 65.7732 100.229C65.7375 100.479 65.8178 100.729 66.014 100.978C66.2102 101.228 66.451 101.371 66.7364 101.407C67.0218 101.442 67.2894 101.362 67.5391 101.166C68.3775 100.488 69.1802 99.8012 69.9472 99.1055C70.7142 98.392 71.4455 97.6785 72.1412 96.965L76.7968 101.059C77.0287 101.255 77.2695 101.344 77.5193 101.326C77.7868 101.308 78.0187 101.175 78.2149 100.925C78.4111 100.675 78.5003 100.417 78.4825 100.149ZM82.3622 86.1286C82.4335 86.2891 82.4692 86.4943 82.4692 86.744V107.48C82.4692 107.819 82.5673 108.087 82.7635 108.283C82.9598 108.479 83.2273 108.577 83.5662 108.577C83.923 108.577 84.1995 108.479 84.3957 108.283C84.5919 108.087 84.69 107.819 84.69 107.48V86.744C84.69 86.3337 84.6454 85.9591 84.5562 85.6202C84.467 85.2813 84.2976 84.9692 84.0478 84.6838L83.593 84.1754C83.3968 83.9613 83.1649 83.8365 82.8973 83.8008C82.6298 83.7651 82.3533 83.8721 82.0679 84.1219C81.6041 84.5678 81.6041 85.0673 82.0679 85.6202C82.2106 85.7808 82.3087 85.9502 82.3622 86.1286ZM76.6145 121.202C87.2486 116.18 95.7406 104.938 97.88 92.2857H97.8855C98.287 89.9152 97.6215 87.4925 96.0595 85.6445C94.4783 83.7772 92.1683 82.702 89.7236 82.702H40.2764C37.8317 82.702 35.5217 83.7717 33.9405 85.6445C32.3785 87.4925 31.713 89.9152 32.1145 92.2857C34.2539 104.938 42.7459 116.18 53.38 121.202H76.6145Z" fill="#8A6C6C"/>
</g>
<path id="Union" fill-rule="evenodd" clip-rule="evenodd" d="M60.1049 14.6874C59.2277 14.4549 58.5533 13.054 58.5533 11.3606C58.5533 9.50461 59.3635 8 60.3629 8C60.3827 8 60.4024 8.00059 60.4221 8.00176C60.4473 7.99799 60.471 8.00027 60.4932 8.00858C61.4318 8.13263 62.1725 9.58599 62.1725 11.3606C62.1725 12.9397 61.5861 14.2644 60.7956 14.6246L60.9532 28.3327C60.9592 28.6043 60.9324 28.8165 60.873 28.9693C60.8194 29.1391 60.6611 29.2221 60.56 29.2391C60.4649 29.2561 60.2529 29.214 60.1935 29.0612C60.134 28.9085 60.1043 28.6963 60.1043 28.4247L60.1049 14.6874Z" fill="#8A6C6C"/>
</g>
</g>
</svg>
