<svg width="14" height="20" viewBox="0 0 14 20" fill="none" xmlns="http://www.w3.org/2000/svg">
<path d="M12.4344 -2.72356e-06H1.56562C1.2671 -0.000417898 0.980629 0.117661 0.769109 0.328302C0.55759 0.538943 0.438319 0.824923 0.437491 1.12343V18.875C0.435341 19.097 0.500061 19.3146 0.623233 19.4993C0.746405 19.6841 0.922328 19.8275 1.12812 19.9109C1.33332 19.9977 1.55961 20.0217 1.77845 19.98C1.99729 19.9382 2.19888 19.8327 2.3578 19.6766L6.86562 15.2484C6.90153 15.2133 6.94976 15.1936 6.99999 15.1936C7.05022 15.1936 7.09845 15.2133 7.13437 15.2484L11.6437 19.675C11.8026 19.8313 12.0042 19.937 12.223 19.9787C12.4419 20.0204 12.6683 19.9963 12.8734 19.9094C13.0787 19.8258 13.2541 19.6825 13.377 19.4981C13.4998 19.3137 13.5645 19.0966 13.5625 18.875V1.12343C13.5617 0.824923 13.4424 0.538943 13.2309 0.328302C13.0194 0.117661 12.7329 -0.000417898 12.4344 -2.72356e-06ZM12.625 18.875C12.6257 18.9119 12.615 18.948 12.5943 18.9785C12.5736 19.0091 12.5439 19.0324 12.5094 19.0453C12.4748 19.0615 12.436 19.0664 12.3984 19.0594C12.3608 19.0524 12.3264 19.0338 12.3 19.0062L7.79062 14.5797C7.57881 14.3734 7.29485 14.258 6.99921 14.258C6.70357 14.258 6.41961 14.3734 6.2078 14.5797L1.69999 19.0062C1.67342 19.0336 1.63901 19.0521 1.60151 19.0591C1.56401 19.0661 1.52527 19.0613 1.49062 19.0453C1.45609 19.0324 1.42642 19.0091 1.40571 18.9785C1.385 18.948 1.37427 18.9119 1.37499 18.875V1.12343C1.37581 1.07356 1.39631 1.02604 1.43201 0.991212C1.46772 0.956385 1.51574 0.937078 1.56562 0.937497H12.4344C12.4842 0.937078 12.5323 0.956385 12.568 0.991212C12.6037 1.02604 12.6242 1.07356 12.625 1.12343V18.875Z" fill="black"/>
</svg>
