<svg width="40" height="40" viewBox="0 0 40 40" fill="none" xmlns="http://www.w3.org/2000/svg">
<circle cx="20" cy="20" r="20" fill="white"/>
<g clip-path="url(#clip0_54875_1033)">
<path d="M25.4344 10H14.5656C14.2671 9.99958 13.9806 10.1177 13.7691 10.3283C13.5576 10.5389 13.4383 10.8249 13.4375 11.1234V28.875C13.4353 29.097 13.5001 29.3146 13.6232 29.4993C13.7464 29.6841 13.9223 29.8275 14.1281 29.9109C14.3333 29.9977 14.5596 30.0217 14.7785 29.98C14.9973 29.9382 15.1989 29.8327 15.3578 29.6766L19.8656 25.2484C19.9015 25.2133 19.9498 25.1936 20 25.1936C20.0502 25.1936 20.0985 25.2133 20.1344 25.2484L24.6437 29.675C24.8026 29.8313 25.0042 29.937 25.223 29.9787C25.4419 30.0204 25.6683 29.9963 25.8734 29.9094C26.0787 29.8258 26.2541 29.6825 26.377 29.4981C26.4998 29.3137 26.5645 29.0966 26.5625 28.875V11.1234C26.5617 10.8249 26.4424 10.5389 26.2309 10.3283C26.0194 10.1177 25.7329 9.99958 25.4344 10ZM25.625 28.875C25.6257 28.9119 25.615 28.948 25.5943 28.9785C25.5736 29.0091 25.5439 29.0324 25.5094 29.0453C25.4748 29.0615 25.436 29.0664 25.3984 29.0594C25.3608 29.0524 25.3264 29.0338 25.3 29.0062L20.7906 24.5797C20.5788 24.3734 20.2948 24.258 19.9992 24.258C19.7036 24.258 19.4196 24.3734 19.2078 24.5797L14.7 29.0062C14.6734 29.0336 14.639 29.0521 14.6015 29.0591C14.564 29.0661 14.5253 29.0613 14.4906 29.0453C14.4561 29.0324 14.4264 29.0091 14.4057 28.9785C14.385 28.948 14.3743 28.9119 14.375 28.875V11.1234C14.3758 11.0736 14.3963 11.026 14.432 10.9912C14.4677 10.9564 14.5157 10.9371 14.5656 10.9375H25.4344C25.4842 10.9371 25.5323 10.9564 25.568 10.9912C25.6037 11.026 25.6242 11.0736 25.625 11.1234V28.875Z" fill="black"/>
</g>
<defs>
<clipPath id="clip0_54875_1033">
<rect width="20" height="20" fill="white" transform="translate(10 10)"/>
</clipPath>
</defs>
</svg>
