<svg width="14" height="20" viewBox="0 0 14 20" fill="none" xmlns="http://www.w3.org/2000/svg">
<path d="M12.0014 1.09114e-06H1.1286C0.829974 -0.000414083 0.543393 0.117665 0.331794 0.328306C0.120196 0.538947 0.000879977 0.824927 5.19035e-05 1.12344V18.875C-0.00209899 19.097 0.0626456 19.3146 0.185864 19.4993C0.309082 19.6841 0.48507 19.8275 0.690935 19.9109C0.89622 19.9977 1.12259 20.0217 1.34151 19.98C1.56043 19.9383 1.7621 19.8327 1.92108 19.6766L6.43058 15.2484C6.4665 15.2133 6.51476 15.1937 6.565 15.1937C6.61525 15.1937 6.66351 15.2133 6.69943 15.2484L11.2105 19.675C11.3694 19.8313 11.571 19.937 11.79 19.9787C12.009 20.0204 12.2354 19.9963 12.4406 19.9094C12.646 19.8258 12.8214 19.6825 12.9444 19.4981C13.0673 19.3137 13.1319 19.0966 13.13 18.875V1.12344C13.1291 0.824927 13.0098 0.538947 12.7982 0.328306C12.5866 0.117665 12.3 -0.000414083 12.0014 1.09114e-06Z" fill="#75B873"/>
</svg>
