<svg width="40" height="40" viewBox="0 0 40 40" fill="none" xmlns="http://www.w3.org/2000/svg">
<circle cx="20" cy="20" r="20" fill="white"/>
<path d="M29.874 19.4094L28.05 17.5875L20.7822 10.3204C20.6805 10.2188 20.5598 10.1382 20.4269 10.0833C20.294 10.0283 20.1516 10 20.0078 10C19.864 10 19.7216 10.0283 19.5887 10.0833C19.4559 10.1382 19.3352 10.2188 19.2335 10.3204L11.9547 17.5829L10.126 19.4094C10.0431 19.4983 9.99793 19.6158 10.0001 19.7372C10.0022 19.8587 10.0515 19.9745 10.1375 20.0604C10.2234 20.1463 10.3394 20.1955 10.461 20.1976C10.5826 20.1998 10.7003 20.1547 10.7892 20.0719L11.817 19.0454V28.9063C11.817 29.1963 11.9324 29.4745 12.1377 29.6796C12.3431 29.8848 12.6216 30 12.912 30H17.1842C17.4746 30 17.7532 29.8848 17.9585 29.6796C18.1639 29.4745 18.2792 29.1963 18.2792 28.9063V22.6563C18.2792 22.6148 18.2957 22.5751 18.3251 22.5458C18.3544 22.5165 18.3942 22.5 18.4357 22.5H21.5643C21.6058 22.5 21.6456 22.5165 21.6749 22.5458C21.7043 22.5751 21.7208 22.6148 21.7208 22.6563V28.9063C21.7208 29.1963 21.8361 29.4745 22.0415 29.6796C22.2468 29.8848 22.5254 30 22.8158 30H27.0927C27.2365 30 27.3789 29.9717 27.5117 29.9167C27.6446 29.8618 27.7653 29.7812 27.867 29.6796C27.9687 29.5781 28.0493 29.4575 28.1043 29.3248C28.1594 29.1921 28.1877 29.0499 28.1877 28.9063V19.05L29.2108 20.0719C29.2997 20.1547 29.4174 20.1998 29.539 20.1976C29.6606 20.1955 29.7766 20.1463 29.8625 20.0604C29.9485 19.9745 29.9978 19.8587 29.9999 19.7372C30.0021 19.6158 29.9569 19.4983 29.874 19.4094ZM27.2491 28.9063C27.2491 28.9477 27.2326 28.9874 27.2033 29.0167C27.1739 29.046 27.1342 29.0625 27.0927 29.0625H22.8158C22.7743 29.0625 22.7345 29.046 22.7052 29.0167C22.6758 28.9874 22.6594 28.9477 22.6594 28.9063V22.6563C22.6594 22.3662 22.544 22.088 22.3386 21.8829C22.1333 21.6778 21.8547 21.5625 21.5643 21.5625H18.4357C18.1453 21.5625 17.8667 21.6778 17.6614 21.8829C17.456 22.088 17.3406 22.3662 17.3406 22.6563V28.9063C17.3406 28.9477 17.3242 28.9874 17.2948 29.0167C17.2655 29.046 17.2257 29.0625 17.1842 29.0625H12.912C12.8705 29.0625 12.8307 29.046 12.8014 29.0167C12.7721 28.9874 12.7556 28.9477 12.7556 28.9063V18.1094L19.8889 10.9829C19.9182 10.9538 19.9579 10.9375 19.9992 10.9375C20.0405 10.9375 20.0802 10.9538 20.1095 10.9829L27.2475 18.1125L27.2491 28.9063Z" fill="black"/>
</svg>
