<svg width="40" height="40" viewBox="0 0 40 40" fill="none" xmlns="http://www.w3.org/2000/svg">
<circle cx="20" cy="20" r="20" fill="#FFEBD0"/>
<path d="M20.6317 5.00065C20.6561 4.9963 20.6751 5.0137 20.6889 5.05284C20.7041 5.09633 20.7117 5.15286 20.7117 5.22244L20.769 10.2088C20.7705 10.2784 20.7637 10.3328 20.7485 10.3719C20.7348 10.4154 20.6942 10.4367 20.6683 10.441C20.6439 10.4454 20.5896 10.4346 20.5744 10.3955C20.5592 10.3563 20.5515 10.302 20.5515 10.2324C20.5515 10.1628 20.5518 5.24201 20.5518 5.24201C20.5503 5.17243 20.5563 5.1159 20.5701 5.07241C20.5853 5.02892 20.6058 5.005 20.6317 5.00065Z" fill="black"/>
<path d="M21.0671 5.00065C21.0915 4.9963 21.1105 5.0137 21.1242 5.05284C21.1394 5.09633 21.1471 5.15286 21.1471 5.22244L21.2044 10.2088C21.2059 10.2784 21.1991 10.3328 21.1838 10.3719C21.1701 10.4154 21.1295 10.4367 21.1037 10.441C21.0793 10.4454 21.025 10.4346 21.0098 10.3955C20.9945 10.3563 20.9869 10.302 20.9869 10.2324C20.9869 10.1628 20.9871 5.24201 20.9871 5.24201C20.9856 5.17243 20.9917 5.1159 21.0054 5.07241C21.0206 5.02892 21.0412 5.005 21.0671 5.00065Z" fill="black"/>
<path fill-rule="evenodd" clip-rule="evenodd" d="M25.1006 16.6594C25.0595 16.6183 25.0024 16.5977 24.9292 16.5977H22.352V16.0562L24.7579 15.9945C24.8264 15.9899 24.8813 15.9671 24.9224 15.926C24.9635 15.8803 24.9841 15.8231 24.9841 15.7546C24.9841 15.6861 24.9635 15.6312 24.9224 15.5901C24.8813 15.5444 24.8264 15.5238 24.7579 15.5284H24.7442C24.7579 15.4416 24.7716 15.3616 24.7853 15.2885C24.799 15.2154 24.8127 15.1468 24.8264 15.0829C24.8493 14.9229 24.8196 14.795 24.7373 14.699C24.6551 14.603 24.5317 14.5596 24.3672 14.5688L22.304 14.6373H22.2286C22.2057 14.6327 22.1783 14.6282 22.1463 14.6236L21.9407 14.603C21.8721 14.5939 21.8127 14.6099 21.7625 14.651C21.7168 14.6876 21.6894 14.7379 21.6802 14.8018C21.6711 14.8749 21.6825 14.9343 21.7145 14.98C21.7511 15.0257 21.8036 15.0532 21.8721 15.0623L22.1052 15.0897C22.1509 15.0989 22.1897 15.1034 22.2217 15.1034H22.3314L24.2918 15.0417C24.2826 15.1057 24.2712 15.1788 24.2575 15.2611C24.2484 15.3388 24.2324 15.4347 24.2095 15.549L21.7419 15.6175C21.6734 15.6221 21.6162 15.6449 21.5705 15.6861C21.5294 15.7272 21.5089 15.782 21.5089 15.8506C21.5089 15.9237 21.5294 15.9808 21.5705 16.0219C21.6162 16.0631 21.6734 16.0813 21.7419 16.0768H21.7899V16.5429C21.7899 16.7028 21.8379 16.8308 21.9338 16.9267C22.0344 17.0272 22.1646 17.0775 22.3245 17.0775H24.9292C25.0024 17.0775 25.0595 17.0547 25.1006 17.009C25.1463 16.9678 25.1692 16.913 25.1692 16.8445C25.1692 16.7668 25.1463 16.7051 25.1006 16.6594ZM20.652 13.6914C20.5058 13.7005 20.4327 13.7782 20.4327 13.9245C20.4373 13.9976 20.4601 14.0547 20.5013 14.0958C20.5469 14.1369 20.6041 14.1552 20.6726 14.1507L25.9094 14.0478C26.0602 14.0387 26.1356 13.9587 26.1356 13.8079C26.1311 13.7348 26.1059 13.6777 26.0602 13.6366C26.0191 13.5954 25.962 13.5772 25.8889 13.5817L20.652 13.6914ZM24.9635 12.6564C24.9178 12.6152 24.8561 12.5947 24.7784 12.5947L22.2697 12.6495V11.306C22.2697 11.2192 22.2423 11.1507 22.1875 11.1004C22.1372 11.0501 22.0686 11.025 21.9818 11.025H21.975C21.8881 11.025 21.8173 11.0524 21.7625 11.1073C21.7122 11.1621 21.6871 11.2329 21.6871 11.3198V12.7455C21.6871 12.8689 21.7236 12.9694 21.7967 13.0471C21.8744 13.1202 21.975 13.1545 22.0983 13.1499L24.799 13.0882C24.9589 13.0791 25.0389 12.9945 25.0389 12.8346C25.0343 12.7569 25.0092 12.6975 24.9635 12.6564ZM15.4363 12.2657C15.3632 12.4439 15.3267 12.6312 15.3267 12.8277C15.3267 13.0288 15.3632 13.2207 15.4363 13.4035C15.514 13.5817 15.6237 13.7394 15.7653 13.8765C15.907 14.0136 16.0806 14.1232 16.2863 14.2055C16.4919 14.2877 16.7227 14.3289 16.9786 14.3289C17.2345 14.3289 17.4653 14.2877 17.6709 14.2055C17.8765 14.1232 18.0502 14.0136 18.1918 13.8765C18.3335 13.7394 18.4409 13.5817 18.514 13.4035C18.5917 13.2207 18.6305 13.0288 18.6305 12.8277C18.6305 12.6312 18.5917 12.4439 18.514 12.2657C18.4409 12.0829 18.3335 11.9229 18.1918 11.7859C18.0502 11.6442 17.8765 11.5322 17.6709 11.45C17.4653 11.3677 17.2345 11.3266 16.9786 11.3266C16.7227 11.3266 16.4919 11.3677 16.2863 11.45C16.0806 11.5322 15.907 11.6442 15.7653 11.7859C15.6237 11.9229 15.514 12.0829 15.4363 12.2657ZM15.9641 13.2184C15.9184 13.0951 15.8956 12.9648 15.8956 12.8277C15.8956 12.6906 15.9184 12.5604 15.9641 12.437C16.0144 12.3137 16.0852 12.2063 16.1766 12.1149C16.268 12.0189 16.38 11.9435 16.5125 11.8887C16.6496 11.8338 16.8049 11.8064 16.9786 11.8064C17.1522 11.8064 17.3053 11.8338 17.4378 11.8887C17.5749 11.9435 17.6892 12.0189 17.7806 12.1149C17.872 12.2063 17.9405 12.3137 17.9862 12.437C18.0365 12.5604 18.0616 12.6906 18.0616 12.8277C18.0616 12.9648 18.0365 13.0951 17.9862 13.2184C17.9405 13.3418 17.872 13.4515 17.7806 13.5475C17.6892 13.6389 17.5749 13.712 17.4378 13.7668C17.3053 13.8216 17.1522 13.8491 16.9786 13.8491C16.8049 13.8491 16.6496 13.8216 16.5125 13.7668C16.38 13.712 16.268 13.6389 16.1766 13.5475C16.0852 13.4515 16.0144 13.3418 15.9641 13.2184ZM16.7455 14.5414C16.6953 14.5916 16.6701 14.6602 16.6701 14.747V15.6655L14.3533 15.7135C14.198 15.7226 14.1203 15.8049 14.1203 15.9602C14.1248 16.0333 14.15 16.0928 14.1957 16.1384C14.2414 16.1796 14.3008 16.1979 14.3739 16.1933L19.6039 16.0905C19.7592 16.0813 19.8369 15.9991 19.8369 15.8437C19.8323 15.766 19.8072 15.7066 19.7615 15.6655C19.7158 15.6198 19.6564 15.5992 19.5833 15.6038L17.2391 15.6518V14.747C17.2391 14.6602 17.2139 14.5916 17.1637 14.5414C17.1134 14.4911 17.0448 14.466 16.958 14.466C16.8666 14.466 16.7958 14.4911 16.7455 14.5414ZM17.2939 18.4004C17.3716 18.3959 17.4333 18.4187 17.479 18.469C17.5292 18.5147 17.5521 18.5764 17.5475 18.654C17.5338 18.8048 17.5201 18.9442 17.5064 19.0722C17.4972 19.1955 17.4858 19.3121 17.4721 19.4217C17.463 19.5268 17.4515 19.6297 17.4378 19.7302C17.4241 19.8262 17.4081 19.9244 17.3899 20.0249H17.4653C17.5384 20.0204 17.5978 20.0409 17.6435 20.0866C17.6892 20.1278 17.7143 20.1849 17.7189 20.258C17.7189 20.4134 17.6412 20.4956 17.4858 20.5048L15.45 20.5527C15.4226 20.6807 15.3335 20.7492 15.1827 20.7584C15.105 20.7584 15.0388 20.7355 14.9839 20.6898C14.9337 20.6396 14.9085 20.5756 14.9085 20.4979L14.84 18.5101C14.84 18.4278 14.8674 18.3593 14.9222 18.3045C14.9771 18.2496 15.0456 18.2222 15.1279 18.2222C15.2056 18.2222 15.2673 18.2451 15.3129 18.2908C15.3632 18.3365 15.3883 18.3981 15.3883 18.4758L17.2939 18.4004ZM17.3145 22.5954C17.2413 22.5999 17.1819 22.5817 17.1362 22.5405C17.0905 22.4994 17.0654 22.4423 17.0608 22.3692C17.0517 22.2961 17.0677 22.2367 17.1088 22.191C17.1499 22.1453 17.2071 22.1201 17.2802 22.1156L18.6305 22.047V18.3182C18.6305 18.2039 18.5917 18.1057 18.514 18.0234C18.3997 17.8909 18.4066 17.7607 18.5346 17.6327C18.5894 17.5779 18.6511 17.5528 18.7196 17.5573C18.7927 17.5619 18.8544 17.5916 18.9047 17.6464L19.0349 17.7904C19.0989 17.8635 19.1423 17.9435 19.1652 18.0303C19.188 18.1171 19.1994 18.2131 19.1994 18.3182V23.6441C19.1994 23.7218 19.1743 23.7858 19.124 23.836C19.0738 23.8863 19.0098 23.9114 18.9321 23.9114H18.8978C18.8202 23.9114 18.7562 23.8863 18.7059 23.836C18.6556 23.7858 18.6305 23.7218 18.6305 23.6441V22.5268L17.3145 22.5954ZM16.5605 23.3494C16.5605 23.427 16.5353 23.491 16.4851 23.5413C16.4348 23.5916 16.3708 23.6167 16.2931 23.6167H16.2589C16.1812 23.6167 16.1172 23.5916 16.0669 23.5413C16.0167 23.491 15.9915 23.427 15.9915 23.3494V21.7865C15.7128 21.8185 15.4363 21.8459 15.1621 21.8688C14.8925 21.8871 14.6321 21.9031 14.3807 21.9168C14.3076 21.9213 14.2482 21.9031 14.2025 21.8619C14.1568 21.8162 14.1294 21.7568 14.1203 21.6837C14.1111 21.6106 14.1271 21.5512 14.1682 21.5055C14.2094 21.4598 14.2665 21.4347 14.3396 21.4301C14.9428 21.3981 15.5643 21.3456 16.204 21.2725C16.8438 21.1948 17.4607 21.092 18.0547 20.964C18.1279 20.9457 18.1895 20.9549 18.2398 20.9914C18.2901 21.0234 18.3221 21.0737 18.3358 21.1422C18.3449 21.2153 18.3312 21.2793 18.2946 21.3341C18.2627 21.3844 18.2124 21.4187 18.1438 21.437C17.8971 21.4918 17.6389 21.5421 17.3693 21.5878C17.1043 21.6335 16.8346 21.6746 16.5605 21.7111V23.3494ZM16.8689 20.0386C16.9009 19.8193 16.9237 19.6251 16.9375 19.456C16.9557 19.2824 16.9672 19.095 16.9717 18.8939L15.4021 18.9556L15.4432 20.0729L16.8689 20.0386ZM24.2369 23.4522C24.2872 23.4065 24.3123 23.3425 24.3123 23.2603V20.7652L25.1006 20.7309V23.6372C25.1006 23.7195 25.1257 23.7858 25.176 23.836C25.2263 23.8863 25.2925 23.9114 25.3748 23.9114C25.457 23.9114 25.5233 23.8863 25.5736 23.836C25.6238 23.7858 25.649 23.7195 25.649 23.6372V18.3182C25.649 18.2131 25.6353 18.1171 25.6078 18.0303C25.585 17.9435 25.5416 17.8635 25.4776 17.7904L25.3542 17.6533C25.304 17.5939 25.2423 17.5642 25.1692 17.5642C25.1006 17.5642 25.0389 17.5916 24.9841 17.6464C24.9292 17.7013 24.9018 17.763 24.9018 17.8315C24.9018 17.8955 24.9292 17.9595 24.9841 18.0234C25.0618 18.1057 25.1006 18.2039 25.1006 18.3182V20.2511L24.3123 20.2854V18.7911C24.3123 18.686 24.3009 18.5901 24.2781 18.5032C24.2552 18.4119 24.2118 18.3319 24.1478 18.2633L24.0245 18.1262C23.9056 17.9937 23.7845 17.9892 23.6612 18.1125C23.6018 18.1719 23.5721 18.2359 23.5721 18.3045C23.5721 18.3684 23.6018 18.4301 23.6612 18.4895L23.668 18.4964C23.7411 18.5695 23.7777 18.6678 23.7777 18.7911V23.2603C23.7777 23.3425 23.8005 23.4065 23.8462 23.4522C23.8965 23.5024 23.9628 23.5276 24.045 23.5276C24.1273 23.5276 24.1912 23.5024 24.2369 23.4522ZM21.1113 20.8201C21.061 20.948 21.0359 21.0805 21.0359 21.2176C21.0359 21.3547 21.061 21.4872 21.1113 21.6152C21.1616 21.7431 21.2324 21.8574 21.3238 21.9579C21.4152 22.0539 21.5271 22.1315 21.6597 22.191C21.7967 22.2458 21.9498 22.2732 22.1189 22.2732C22.288 22.2732 22.4388 22.2458 22.5713 22.191C22.7084 22.1315 22.8226 22.0539 22.914 21.9579C23.01 21.8574 23.0808 21.7431 23.1265 21.6152C23.1768 21.4872 23.2019 21.3547 23.2019 21.2176C23.2019 21.076 23.1768 20.9412 23.1265 20.8132C23.0763 20.6853 23.0054 20.5733 22.914 20.4773C22.8226 20.3814 22.7084 20.306 22.5713 20.2511C22.4388 20.1917 22.288 20.162 22.1189 20.162C21.9498 20.162 21.7967 20.1917 21.6597 20.2511C21.5271 20.306 21.4152 20.3837 21.3238 20.4842C21.2324 20.5802 21.1616 20.6921 21.1113 20.8201ZM20.4944 19.7302C20.5218 19.7805 20.5675 19.817 20.6315 19.8399L20.8508 19.9084C20.9011 19.9221 20.9491 19.9313 20.9948 19.9358C21.045 19.9358 21.0953 19.9335 21.1456 19.929L23.2842 19.8262C23.3619 19.8216 23.419 19.7987 23.4555 19.7576C23.4921 19.7119 23.5081 19.6548 23.5035 19.5863C23.4989 19.5131 23.4761 19.456 23.435 19.4149C23.3938 19.3692 23.3367 19.3486 23.2636 19.3532L21.1387 19.456C21.1022 19.4606 21.0725 19.4606 21.0496 19.456C21.0268 19.4514 20.9993 19.4446 20.9674 19.4355L20.7686 19.3806C20.7 19.3578 20.6383 19.3646 20.5835 19.4012C20.5332 19.4377 20.5013 19.488 20.4875 19.552C20.4693 19.616 20.4715 19.6754 20.4944 19.7302ZM22.5233 21.6494C22.4274 21.7546 22.2926 21.8071 22.1189 21.8071C21.9453 21.8071 21.8105 21.7546 21.7145 21.6494C21.6185 21.5443 21.5705 21.4004 21.5705 21.2176C21.5705 21.0348 21.6185 20.8909 21.7145 20.7858C21.8105 20.6807 21.9453 20.6281 22.1189 20.6281C22.2926 20.6281 22.4274 20.6807 22.5233 20.7858C22.6239 20.8909 22.6741 21.0348 22.6741 21.2176C22.6741 21.4004 22.6239 21.5443 22.5233 21.6494ZM21.2347 18.6815C21.1981 18.8323 21.2507 18.9328 21.3923 18.9831L21.4952 19.0173C21.5317 19.031 21.5728 19.0379 21.6185 19.0379H21.7488H21.7967L22.7015 19.0105C22.8615 19.0013 22.9369 18.9191 22.9277 18.7637C22.9232 18.6906 22.9003 18.6335 22.8592 18.5924C22.8181 18.5467 22.7587 18.5261 22.681 18.5307L21.783 18.5581C21.7282 18.5581 21.6734 18.5512 21.6185 18.5375L21.5226 18.5101C21.4495 18.4873 21.3855 18.4941 21.3306 18.5307C21.2804 18.5672 21.2484 18.6175 21.2347 18.6815ZM17.2665 27.2701C17.3396 27.2701 17.399 27.2907 17.4447 27.3318C17.4904 27.3729 17.5155 27.4301 17.5201 27.5032C17.5201 27.5763 17.4995 27.6357 17.4584 27.6814C17.4173 27.7271 17.3602 27.7499 17.287 27.7499L15.2513 27.7979C15.2284 27.9396 15.1416 28.015 14.9908 28.0241C14.9085 28.0241 14.8423 28.0013 14.792 27.9556C14.7417 27.9053 14.7143 27.839 14.7098 27.7568L14.6138 25.3851C14.6092 25.3029 14.6321 25.2343 14.6823 25.1795C14.7372 25.1201 14.808 25.0904 14.8948 25.0904C14.9725 25.0904 15.0342 25.1132 15.0799 25.1589C15.1256 25.2046 15.153 25.2663 15.1621 25.344L17.0745 25.2686C17.1614 25.264 17.2276 25.2869 17.2733 25.3372C17.3236 25.3829 17.3442 25.4491 17.335 25.5359C17.3213 25.7187 17.3076 25.8878 17.2939 26.0432C17.2802 26.1985 17.2642 26.3471 17.2459 26.4887C17.2276 26.6258 17.2094 26.7606 17.1911 26.8931C17.1728 27.0211 17.1522 27.149 17.1294 27.277L17.2665 27.2701ZM17.6846 26.7903C17.6115 26.7903 17.5521 26.7697 17.5064 26.7286C17.4653 26.6875 17.4447 26.6304 17.4447 26.5573C17.4447 26.4841 17.4653 26.4247 17.5064 26.379C17.5521 26.3333 17.6115 26.3105 17.6846 26.3105L18.6237 26.2968V25.1727C18.6237 25.0538 18.5894 24.9602 18.5208 24.8916C18.4569 24.8276 18.4272 24.7614 18.4317 24.6928C18.4363 24.6243 18.4706 24.5603 18.5346 24.5009C18.6031 24.4415 18.6716 24.4141 18.7402 24.4187C18.8087 24.4187 18.8727 24.4552 18.9321 24.5283L19.0281 24.6449C19.092 24.718 19.1355 24.7979 19.1583 24.8848C19.1812 24.9716 19.1926 25.0675 19.1926 25.1727V28.0173C19.1926 28.1041 19.1674 28.1726 19.1172 28.2229C19.0669 28.2732 18.9961 28.2983 18.9047 28.2983C18.8179 28.2983 18.7493 28.2732 18.6991 28.2229C18.6488 28.1726 18.6237 28.1041 18.6237 28.0173V26.7766L17.6846 26.7903ZM16.1286 29.1551C16.0601 29.1597 16.003 29.1437 15.9573 29.1071C15.9161 29.066 15.8933 29.0089 15.8887 28.9358C15.8842 28.8626 15.9024 28.8055 15.9436 28.7644C15.9847 28.7187 16.0418 28.6936 16.1149 28.689L18.8019 28.6067C18.9207 28.6022 19.0167 28.6364 19.0898 28.7096C19.1629 28.7827 19.1994 28.8786 19.1994 28.9975V30.5603C19.1994 30.6425 19.1743 30.7088 19.124 30.7591C19.0738 30.8139 19.0029 30.8413 18.9115 30.8413C18.8293 30.8413 18.7607 30.8139 18.7059 30.7591C18.6556 30.7088 18.6305 30.6425 18.6305 30.5603V29.0866L16.1286 29.1551ZM16.6153 27.2907C16.6519 27.0074 16.6838 26.7378 16.7113 26.4819C16.7432 26.226 16.7615 25.986 16.7661 25.7621L15.1827 25.8238L15.2375 27.3181L16.6153 27.2907ZM23.9079 28.6067C23.9034 28.5382 23.8714 28.4788 23.812 28.4285L22.6398 27.4004C22.8272 27.1856 22.9917 26.9822 23.1334 26.7903C23.2796 26.5938 23.3984 26.4087 23.4898 26.2351C23.5675 26.098 23.5721 25.9815 23.5035 25.8855C23.4395 25.785 23.3207 25.7393 23.1471 25.7484L21.6391 25.817C21.5614 25.817 21.4929 25.8101 21.4335 25.7964L21.2964 25.7621C21.2278 25.7439 21.1661 25.7507 21.1113 25.7827C21.061 25.8101 21.0268 25.8581 21.0085 25.9266C20.9856 25.9998 20.9879 26.0637 21.0153 26.1186C21.0473 26.1734 21.0976 26.21 21.1661 26.2282L21.3444 26.2762C21.3992 26.2899 21.4517 26.2991 21.502 26.3036C21.5523 26.3036 21.6003 26.3014 21.6459 26.2968L22.8523 26.2419C22.7747 26.3608 22.6673 26.507 22.5302 26.6806C22.3931 26.8543 22.2331 27.0439 22.0504 27.2496C21.8721 27.4506 21.6711 27.6563 21.4472 27.8665C21.2278 28.0767 20.9993 28.2732 20.7617 28.4559C20.6977 28.5062 20.6612 28.5633 20.652 28.6273C20.6429 28.6913 20.6635 28.7553 20.7137 28.8192C20.764 28.8832 20.8257 28.9198 20.8988 28.9289C20.9719 28.938 21.0405 28.9175 21.1044 28.8672C21.3192 28.6936 21.5249 28.5176 21.7213 28.3394C21.9178 28.1566 22.1052 27.9738 22.2834 27.7911L23.4761 28.8398C23.5355 28.8901 23.5972 28.9129 23.6612 28.9083C23.7297 28.9038 23.7891 28.8695 23.8394 28.8055C23.8896 28.7415 23.9125 28.6753 23.9079 28.6067ZM24.9018 25.015C24.9201 25.0561 24.9292 25.1087 24.9292 25.1727V30.4849C24.9292 30.5717 24.9544 30.6402 25.0046 30.6905C25.0549 30.7408 25.1235 30.7659 25.2103 30.7659C25.3017 30.7659 25.3725 30.7408 25.4228 30.6905C25.473 30.6402 25.4982 30.5717 25.4982 30.4849V25.1727C25.4982 25.0675 25.4867 24.9716 25.4639 24.8848C25.441 24.7979 25.3976 24.718 25.3337 24.6449L25.2171 24.5146C25.1669 24.4598 25.1075 24.4278 25.0389 24.4187C24.9704 24.4095 24.8995 24.4369 24.8264 24.5009C24.7076 24.6152 24.7076 24.7431 24.8264 24.8848C24.863 24.9259 24.8881 24.9693 24.9018 25.015ZM23.4293 34C26.1536 32.7136 28.3291 29.8336 28.8772 26.5923H28.8786C28.9814 25.985 28.8109 25.3644 28.4108 24.891C28.0057 24.4126 27.4139 24.1372 26.7876 24.1372H14.1202C13.494 24.1372 12.9022 24.4112 12.4971 24.891C12.097 25.3644 11.9265 25.985 12.0293 26.5923C12.5774 29.8336 14.7529 32.7136 17.4771 34H23.4293Z" fill="black"/>
<path fill-rule="evenodd" clip-rule="evenodd" d="M19.1999 6.71317C18.9752 6.65361 18.8024 6.29474 18.8024 5.86093C18.8024 5.38545 19.01 5 19.266 5C19.522 5 19.7296 5.38545 19.7296 5.86093C19.7296 6.26545 19.5794 6.60481 19.3769 6.69708L19.4172 10.2088C19.4188 10.2784 19.4119 10.3328 19.3967 10.3719C19.383 10.4154 19.3424 10.4367 19.3165 10.441C19.2921 10.4454 19.2378 10.4346 19.2226 10.3955C19.2074 10.3563 19.1998 10.302 19.1998 10.2324L19.1999 6.71317Z" fill="black"/>
</svg>
