<svg width="40" height="40" viewBox="0 0 40 40" fill="none" xmlns="http://www.w3.org/2000/svg">
<circle cx="20" cy="20" r="20" fill="white"/>
<g clip-path="url(#clip0_54875_1032)">
<path d="M20 10C18.0222 10 16.0888 10.5865 14.4443 11.6853C12.7998 12.7841 11.5181 14.3459 10.7612 16.1732C10.0043 18.0004 9.8063 20.0111 10.1922 21.9509C10.578 23.8907 11.5304 25.6725 12.9289 27.0711C14.3275 28.4696 16.1093 29.422 18.0491 29.8079C19.9889 30.1937 21.9996 29.9957 23.8268 29.2388C25.6541 28.4819 27.2159 27.2002 28.3147 25.5557C29.4135 23.9112 30 21.9778 30 20C29.9971 17.3487 28.9426 14.8069 27.0679 12.9321C25.1931 11.0574 22.6513 10.0029 20 10ZM20 29.0625C18.2076 29.0625 16.4555 28.531 14.9651 27.5352C13.4748 26.5394 12.3133 25.124 11.6273 23.4681C10.9414 21.8121 10.762 19.9899 11.1116 18.232C11.4613 16.474 12.3244 14.8593 13.5918 13.5918C14.8593 12.3244 16.474 11.4613 18.232 11.1116C19.99 10.762 21.8121 10.9414 23.4681 11.6273C25.124 12.3133 26.5394 13.4748 27.5352 14.9651C28.531 16.4555 29.0625 18.2076 29.0625 20C29.0596 22.4026 28.1039 24.706 26.405 26.405C24.706 28.1039 22.4026 29.0596 20 29.0625Z" fill="black"/>
<path d="M24.0625 19.5312H20.4688V15.9375C20.4688 15.8132 20.4194 15.694 20.3315 15.606C20.2435 15.5181 20.1243 15.4688 20 15.4688C19.8757 15.4688 19.7565 15.5181 19.6685 15.606C19.5806 15.694 19.5312 15.8132 19.5312 15.9375V19.5312H15.9375C15.8132 19.5312 15.694 19.5806 15.606 19.6685C15.5181 19.7565 15.4688 19.8757 15.4688 20C15.4688 20.1243 15.5181 20.2435 15.606 20.3315C15.694 20.4194 15.8132 20.4688 15.9375 20.4688H19.5312V24.0625C19.5312 24.1868 19.5806 24.306 19.6685 24.394C19.7565 24.4819 19.8757 24.5312 20 24.5312C20.1243 24.5312 20.2435 24.4819 20.3315 24.394C20.4194 24.306 20.4688 24.1868 20.4688 24.0625V20.4688H24.0625C24.1868 20.4688 24.306 20.4194 24.394 20.3315C24.4819 20.2435 24.5312 20.1243 24.5312 20C24.5312 19.8757 24.4819 19.7565 24.394 19.6685C24.306 19.5806 24.1868 19.5312 24.0625 19.5312Z" fill="black"/>
</g>
<defs>
<clipPath id="clip0_54875_1032">
<rect width="20" height="20" fill="white" transform="translate(10 10)"/>
</clipPath>
</defs>
</svg>
